M48
;DRILL file {KiCad 5.0.0+dfsg1-2~bpo9+1} date Sun Oct  7 14:27:28 2018
;FORMAT={-:-/ absolute / metric / decimal}
FMAT,2
METRIC,TZ
T1C0.400
T2C0.762
T3C0.800
T4C0.900
T5C1.000
T6C1.001
T7C1.100
T8C1.199
T9C1.200
T10C1.300
%
G90
G05
M71
T1
X56.Y-167.
X60.5Y-103.5
X61.Y-170.
X63.5Y-172.5
X70.6Y-131.2
X70.8Y-116.4
X70.8Y-118.3
X71.Y-157.
X71.7Y-116.2
X71.75Y-154.75
X71.8Y-118.3
X72.7Y-116.1
X72.7Y-118.4
X72.75Y-107.5
X73.Y-120.6
X73.8Y-102.7
X77.Y-126.1
X78.009Y-82.138
X79.Y-115.5
X79.1Y-100.9
X79.5Y-90.5
X80.Y-95.8
X80.004Y-94.305
X83.7Y-101.
X83.8Y-115.1
X84.523Y-83.505
X84.556Y-113.55
X84.75Y-125.75
X85.704Y-115.004
X86.Y-94.6
X86.Y-97.
X86.5Y-103.5
X86.5Y-110.6
X87.85Y-97.
X88.4Y-120.125
X89.4Y-143.6
X89.7Y-124.7
X90.9Y-114.
X93.25Y-98.25
X93.3Y-111.1
X93.6Y-124.3
X94.8Y-104.2
X94.808Y-106.508
X95.4Y-127.1
X97.5Y-90.25
X97.658Y-99.142
X97.992Y-85.308
X98.Y-89.3
X98.Y-91.8
X98.Y-93.3
X98.Y-97.
X98.6Y-129.2
X100.6Y-102.7
X102.Y-90.5
X102.3Y-83.5
X102.4Y-137.8
X102.8Y-147.6
X103.Y-86.7
X104.6Y-75.6
X106.805Y-82.
X107.6Y-80.5
X112.Y-81.6
T2
X80.05Y-169.55
X80.05Y-184.95
X109.45Y-174.75
X109.45Y-179.75
X79.33Y-122.7
X81.87Y-122.7
X95.33Y-125.
X97.87Y-125.
T3
X60.5Y-108.3
X60.5Y-110.8
X63.Y-87.22
X63.Y-89.76
X63.Y-92.3
X100.4Y-122.56
X100.4Y-125.1
X100.4Y-127.64
X108.02Y-122.56
X108.02Y-125.1
X108.02Y-127.64
T4
X60.5Y-116.5
X60.5Y-119.04
X95.26Y-131.6
X97.8Y-131.6
X95.26Y-143.
X97.8Y-143.
X95.26Y-120.9
X97.8Y-120.9
T5
X92.Y-155.16
X92.Y-157.7
X117.Y-129.1
X117.Y-139.1
X76.Y-76.06
X76.Y-78.6
X76.Y-81.14
X76.Y-83.68
X76.Y-86.22
X76.Y-88.76
X76.Y-91.3
X76.Y-93.84
X76.Y-96.38
X76.Y-98.92
X76.Y-101.46
X76.Y-104.
X76.Y-106.54
X76.Y-109.08
X76.Y-111.62
X76.Y-114.16
X55.4Y-122.56
X55.4Y-125.1
X84.81Y-131.6
X87.35Y-131.6
X67.Y-79.4
X67.Y-81.94
X67.Y-84.48
X67.Y-87.02
X67.Y-89.56
X67.Y-92.1
X67.Y-94.64
X67.Y-97.18
X67.Y-99.72
X67.Y-102.26
X67.Y-104.8
X67.Y-107.34
X67.Y-109.88
X67.Y-112.42
X67.Y-114.96
X67.Y-117.5
X67.Y-120.04
X67.Y-122.58
X67.Y-125.12
X67.Y-127.66
X67.Y-130.2
X67.Y-132.74
X67.Y-135.28
X67.Y-137.82
X67.Y-140.36
X92.Y-140.46
X92.Y-143.
X92.Y-145.54
X84.86Y-122.6
X87.4Y-122.6
X61.Y-122.58
X61.Y-125.12
X61.Y-127.66
X61.Y-130.2
X61.Y-132.74
X61.Y-135.28
X61.Y-137.82
X61.Y-140.36
X57.7Y-88.3
X57.7Y-90.84
X119.25Y-84.
X121.046Y-82.204
X112.Y-129.
X112.Y-139.
X134.3Y-83.
X134.3Y-85.54
T6
X69.58Y-173.3
X69.58Y-175.84
X69.58Y-178.38
T7
X123.1Y-131.66
X123.1Y-134.2
X123.1Y-136.74
X130.4Y-160.
X130.4Y-165.08
X130.Y-145.
X130.Y-150.08
X81.2Y-140.7
X81.2Y-145.2
X87.7Y-140.7
X87.7Y-145.2
X130.2Y-171.9
X130.2Y-176.98
X130.Y-133.75
X130.Y-138.83
X81.2Y-154.
X81.2Y-158.5
X87.7Y-154.
X87.7Y-158.5
T8
X79.5Y-161.9
X89.5Y-161.9
X79.5Y-150.1
X89.5Y-150.1
T9
X110.2Y-79.4
X111.98Y-84.9
X112.2Y-90.4
X114.025Y-75.45
X114.025Y-94.25
X119.525Y-77.23
X119.525Y-92.47
X125.025Y-77.45
X125.025Y-92.25
X127.Y-90.4
X127.22Y-84.9
X129.Y-79.4
T10
X131.Y-101.
X131.Y-106.08
X131.Y-111.16
X131.Y-117.5
X131.Y-122.58
X131.Y-127.66
X97.66Y-107.9
X97.66Y-115.4
X112.92Y-107.9
X112.92Y-115.4
X117.96Y-107.9
X117.96Y-115.4
X123.Y-107.9
X123.Y-115.4
X120.25Y-162.75
X120.25Y-185.25
T0
M30
