G04 #@! TF.GenerationSoftware,KiCad,Pcbnew,5.0.0+dfsg1-2~bpo9+1*
G04 #@! TF.CreationDate,2018-10-07T14:27:24+02:00*
G04 #@! TF.ProjectId,PoesPPowerNode,506F657350506F7765724E6F64652E6B,rev?*
G04 #@! TF.SameCoordinates,Original*
G04 #@! TF.FileFunction,Soldermask,Top*
G04 #@! TF.FilePolarity,Negative*
%FSLAX46Y46*%
G04 Gerber Fmt 4.6, Leading zero omitted, Abs format (unit mm)*
G04 Created by KiCad (PCBNEW 5.0.0+dfsg1-2~bpo9+1) date Sun Oct  7 14:27:24 2018*
%MOMM*%
%LPD*%
G01*
G04 APERTURE LIST*
%ADD10C,3.600000*%
%ADD11C,2.200000*%
%ADD12O,2.900000X1.300000*%
%ADD13O,1.300000X2.900000*%
%ADD14R,6.400000X6.400000*%
%ADD15O,2.899360X1.901140*%
%ADD16R,2.100000X2.100000*%
%ADD17O,2.100000X2.100000*%
%ADD18C,2.100000*%
%ADD19C,2.100000*%
%ADD20C,0.100000*%
%ADD21C,0.300000*%
%ADD22C,2.600000*%
%ADD23C,1.375000*%
%ADD24R,2.000000X2.000000*%
%ADD25C,2.000000*%
%ADD26C,1.550000*%
%ADD27C,2.400000*%
%ADD28R,2.200000X2.200000*%
%ADD29R,1.200000X1.300000*%
%ADD30R,4.900000X3.100000*%
%ADD31R,3.400000X2.400000*%
%ADD32O,3.400000X2.400000*%
%ADD33O,2.400000X3.400000*%
%ADD34C,1.900000*%
%ADD35R,1.900000X1.900000*%
%ADD36O,2.000000X2.000000*%
%ADD37R,4.200000X2.400000*%
%ADD38R,1.900000X2.400000*%
%ADD39R,2.500000X2.500000*%
%ADD40C,2.500000*%
%ADD41R,2.900000X2.900000*%
%ADD42C,2.900000*%
%ADD43R,1.500000X1.500000*%
%ADD44R,2.400000X2.305000*%
%ADD45O,2.400000X2.305000*%
%ADD46C,1.924000*%
%ADD47C,3.400000*%
%ADD48C,3.100000*%
G04 APERTURE END LIST*
D10*
G04 #@! TO.C,MK3*
X57000000Y-183300000D03*
G04 #@! TD*
D11*
G04 #@! TO.C,TR1*
X127000000Y-90400000D03*
X112200000Y-90400000D03*
X129000000Y-79400000D03*
X110200000Y-79400000D03*
X127220000Y-84900000D03*
X111980000Y-84900000D03*
X119524685Y-92469869D03*
X125024685Y-77449869D03*
X119524685Y-77229869D03*
X125024685Y-92249869D03*
X114024685Y-94249869D03*
X114024685Y-75449869D03*
G04 #@! TD*
D12*
G04 #@! TO.C,U4*
X100000000Y-83050000D03*
X100000000Y-84320000D03*
X100000000Y-85590000D03*
X100000000Y-86860000D03*
X100000000Y-88130000D03*
X100000000Y-89400000D03*
X100000000Y-90670000D03*
X100000000Y-91940000D03*
X100000000Y-93210000D03*
X100000000Y-94480000D03*
X100000000Y-95750000D03*
X100000000Y-97020000D03*
X100000000Y-98290000D03*
X100000000Y-99560000D03*
D13*
X96715000Y-101050000D03*
X95445000Y-101050000D03*
X94175000Y-101050000D03*
X92905000Y-101050000D03*
X91635000Y-101050000D03*
X90365000Y-101050000D03*
X89095000Y-101050000D03*
X87825000Y-101050000D03*
X86555000Y-101050000D03*
X85285000Y-101050000D03*
D12*
X82000000Y-99560000D03*
X82000000Y-98290000D03*
X82000000Y-97020000D03*
X82000000Y-95750000D03*
X82000000Y-94480000D03*
X82000000Y-93210000D03*
X82000000Y-91940000D03*
X82000000Y-90670000D03*
X82000000Y-89400000D03*
X82000000Y-88130000D03*
X82000000Y-86860000D03*
X82000000Y-85590000D03*
X82000000Y-84320000D03*
X82000000Y-83050000D03*
D14*
X90700000Y-90750000D03*
G04 #@! TD*
D15*
G04 #@! TO.C,U7*
X69580000Y-175840000D03*
X69580000Y-173300000D03*
X69580000Y-178380000D03*
G04 #@! TD*
D16*
G04 #@! TO.C,P10*
X134300000Y-85540000D03*
D17*
X134300000Y-83000000D03*
G04 #@! TD*
D18*
G04 #@! TO.C,P11*
X121046051Y-82203949D03*
D19*
X121046051Y-82203949D02*
X121046051Y-82203949D01*
D18*
X119250000Y-84000000D03*
D20*
G36*
X120734924Y-84000000D02*
X119250000Y-85484924D01*
X117765076Y-84000000D01*
X119250000Y-82515076D01*
X120734924Y-84000000D01*
X120734924Y-84000000D01*
G37*
G04 #@! TD*
D21*
G04 #@! TO.C,JP1*
X98125000Y-127700000D03*
D20*
G36*
X98664018Y-126753843D02*
X98701537Y-126765224D01*
X98736114Y-126783706D01*
X98766421Y-126808579D01*
X98791294Y-126838886D01*
X98809776Y-126873463D01*
X98821157Y-126910982D01*
X98825000Y-126950000D01*
X98825000Y-128450000D01*
X98821157Y-128489018D01*
X98809776Y-128526537D01*
X98791294Y-128561114D01*
X98766421Y-128591421D01*
X98736114Y-128616294D01*
X98701537Y-128634776D01*
X98664018Y-128646157D01*
X98625000Y-128650000D01*
X97475000Y-128650000D01*
X97435982Y-128646157D01*
X97398463Y-128634776D01*
X97363886Y-128616294D01*
X97333579Y-128591421D01*
X97308706Y-128561114D01*
X97290224Y-128526537D01*
X97278843Y-128489018D01*
X97275000Y-128450000D01*
X97278843Y-128410982D01*
X97290224Y-128373463D01*
X97308590Y-128339060D01*
X97734630Y-127700000D01*
X97308590Y-127060940D01*
X97290144Y-127026343D01*
X97278802Y-126988813D01*
X97275000Y-126949791D01*
X97278884Y-126910777D01*
X97290304Y-126873270D01*
X97308822Y-126838712D01*
X97333727Y-126808431D01*
X97364060Y-126783590D01*
X97398657Y-126765144D01*
X97436187Y-126753802D01*
X97475000Y-126750000D01*
X98625000Y-126750000D01*
X98664018Y-126753843D01*
X98664018Y-126753843D01*
G37*
D21*
X96675000Y-127700000D03*
D20*
G36*
X97214018Y-126753843D02*
X97251537Y-126765224D01*
X97286114Y-126783706D01*
X97316421Y-126808579D01*
X97341410Y-126839060D01*
X97841410Y-127589060D01*
X97859856Y-127623657D01*
X97871198Y-127661187D01*
X97875000Y-127700209D01*
X97871116Y-127739223D01*
X97859696Y-127776730D01*
X97841410Y-127810940D01*
X97341410Y-128560940D01*
X97316569Y-128591273D01*
X97286288Y-128616178D01*
X97251730Y-128634696D01*
X97214223Y-128646116D01*
X97175000Y-128650000D01*
X96175000Y-128650000D01*
X96135982Y-128646157D01*
X96098463Y-128634776D01*
X96063886Y-128616294D01*
X96033579Y-128591421D01*
X96008706Y-128561114D01*
X95990224Y-128526537D01*
X95978843Y-128489018D01*
X95975000Y-128450000D01*
X95975000Y-126950000D01*
X95978843Y-126910982D01*
X95990224Y-126873463D01*
X96008706Y-126838886D01*
X96033579Y-126808579D01*
X96063886Y-126783706D01*
X96098463Y-126765224D01*
X96135982Y-126753843D01*
X96175000Y-126750000D01*
X97175000Y-126750000D01*
X97214018Y-126753843D01*
X97214018Y-126753843D01*
G37*
G04 #@! TD*
D21*
G04 #@! TO.C,JP4*
X93425000Y-113500000D03*
D20*
G36*
X92885982Y-114446157D02*
X92848463Y-114434776D01*
X92813886Y-114416294D01*
X92783579Y-114391421D01*
X92758590Y-114360940D01*
X92258590Y-113610940D01*
X92240144Y-113576343D01*
X92228802Y-113538813D01*
X92225000Y-113499791D01*
X92228884Y-113460777D01*
X92240304Y-113423270D01*
X92258590Y-113389060D01*
X92758590Y-112639060D01*
X92783431Y-112608727D01*
X92813712Y-112583822D01*
X92848270Y-112565304D01*
X92885777Y-112553884D01*
X92925000Y-112550000D01*
X93925000Y-112550000D01*
X93964018Y-112553843D01*
X94001537Y-112565224D01*
X94036114Y-112583706D01*
X94066421Y-112608579D01*
X94091294Y-112638886D01*
X94109776Y-112673463D01*
X94121157Y-112710982D01*
X94125000Y-112750000D01*
X94125000Y-114250000D01*
X94121157Y-114289018D01*
X94109776Y-114326537D01*
X94091294Y-114361114D01*
X94066421Y-114391421D01*
X94036114Y-114416294D01*
X94001537Y-114434776D01*
X93964018Y-114446157D01*
X93925000Y-114450000D01*
X92925000Y-114450000D01*
X92885982Y-114446157D01*
X92885982Y-114446157D01*
G37*
D21*
X91975000Y-113500000D03*
D20*
G36*
X91435982Y-114446157D02*
X91398463Y-114434776D01*
X91363886Y-114416294D01*
X91333579Y-114391421D01*
X91308706Y-114361114D01*
X91290224Y-114326537D01*
X91278843Y-114289018D01*
X91275000Y-114250000D01*
X91275000Y-112750000D01*
X91278843Y-112710982D01*
X91290224Y-112673463D01*
X91308706Y-112638886D01*
X91333579Y-112608579D01*
X91363886Y-112583706D01*
X91398463Y-112565224D01*
X91435982Y-112553843D01*
X91475000Y-112550000D01*
X92625000Y-112550000D01*
X92664018Y-112553843D01*
X92701537Y-112565224D01*
X92736114Y-112583706D01*
X92766421Y-112608579D01*
X92791294Y-112638886D01*
X92809776Y-112673463D01*
X92821157Y-112710982D01*
X92825000Y-112750000D01*
X92821157Y-112789018D01*
X92809776Y-112826537D01*
X92791410Y-112860940D01*
X92365370Y-113500000D01*
X92791410Y-114139060D01*
X92809856Y-114173657D01*
X92821198Y-114211187D01*
X92825000Y-114250209D01*
X92821116Y-114289223D01*
X92809696Y-114326730D01*
X92791178Y-114361288D01*
X92766273Y-114391569D01*
X92735940Y-114416410D01*
X92701343Y-114434856D01*
X92663813Y-114446198D01*
X92625000Y-114450000D01*
X91475000Y-114450000D01*
X91435982Y-114446157D01*
X91435982Y-114446157D01*
G37*
G04 #@! TD*
D22*
G04 #@! TO.C,H1*
X130600000Y-89900000D03*
G04 #@! TD*
G04 #@! TO.C,H2*
X134750000Y-93250000D03*
G04 #@! TD*
D10*
G04 #@! TO.C,MK1*
X134000000Y-77000000D03*
G04 #@! TD*
G04 #@! TO.C,MK2*
X57000000Y-77000000D03*
G04 #@! TD*
G04 #@! TO.C,MK4*
X132000000Y-183300000D03*
G04 #@! TD*
D20*
G04 #@! TO.C,C2*
G36*
X97714943Y-149201655D02*
X97748312Y-149206605D01*
X97781035Y-149214802D01*
X97812797Y-149226166D01*
X97843293Y-149240590D01*
X97872227Y-149257932D01*
X97899323Y-149278028D01*
X97924318Y-149300682D01*
X97946972Y-149325677D01*
X97967068Y-149352773D01*
X97984410Y-149381707D01*
X97998834Y-149412203D01*
X98010198Y-149443965D01*
X98018395Y-149476688D01*
X98023345Y-149510057D01*
X98025000Y-149543750D01*
X98025000Y-150656250D01*
X98023345Y-150689943D01*
X98018395Y-150723312D01*
X98010198Y-150756035D01*
X97998834Y-150787797D01*
X97984410Y-150818293D01*
X97967068Y-150847227D01*
X97946972Y-150874323D01*
X97924318Y-150899318D01*
X97899323Y-150921972D01*
X97872227Y-150942068D01*
X97843293Y-150959410D01*
X97812797Y-150973834D01*
X97781035Y-150985198D01*
X97748312Y-150993395D01*
X97714943Y-150998345D01*
X97681250Y-151000000D01*
X96993750Y-151000000D01*
X96960057Y-150998345D01*
X96926688Y-150993395D01*
X96893965Y-150985198D01*
X96862203Y-150973834D01*
X96831707Y-150959410D01*
X96802773Y-150942068D01*
X96775677Y-150921972D01*
X96750682Y-150899318D01*
X96728028Y-150874323D01*
X96707932Y-150847227D01*
X96690590Y-150818293D01*
X96676166Y-150787797D01*
X96664802Y-150756035D01*
X96656605Y-150723312D01*
X96651655Y-150689943D01*
X96650000Y-150656250D01*
X96650000Y-149543750D01*
X96651655Y-149510057D01*
X96656605Y-149476688D01*
X96664802Y-149443965D01*
X96676166Y-149412203D01*
X96690590Y-149381707D01*
X96707932Y-149352773D01*
X96728028Y-149325677D01*
X96750682Y-149300682D01*
X96775677Y-149278028D01*
X96802773Y-149257932D01*
X96831707Y-149240590D01*
X96862203Y-149226166D01*
X96893965Y-149214802D01*
X96926688Y-149206605D01*
X96960057Y-149201655D01*
X96993750Y-149200000D01*
X97681250Y-149200000D01*
X97714943Y-149201655D01*
X97714943Y-149201655D01*
G37*
D23*
X97337500Y-150100000D03*
D20*
G36*
X95839943Y-149201655D02*
X95873312Y-149206605D01*
X95906035Y-149214802D01*
X95937797Y-149226166D01*
X95968293Y-149240590D01*
X95997227Y-149257932D01*
X96024323Y-149278028D01*
X96049318Y-149300682D01*
X96071972Y-149325677D01*
X96092068Y-149352773D01*
X96109410Y-149381707D01*
X96123834Y-149412203D01*
X96135198Y-149443965D01*
X96143395Y-149476688D01*
X96148345Y-149510057D01*
X96150000Y-149543750D01*
X96150000Y-150656250D01*
X96148345Y-150689943D01*
X96143395Y-150723312D01*
X96135198Y-150756035D01*
X96123834Y-150787797D01*
X96109410Y-150818293D01*
X96092068Y-150847227D01*
X96071972Y-150874323D01*
X96049318Y-150899318D01*
X96024323Y-150921972D01*
X95997227Y-150942068D01*
X95968293Y-150959410D01*
X95937797Y-150973834D01*
X95906035Y-150985198D01*
X95873312Y-150993395D01*
X95839943Y-150998345D01*
X95806250Y-151000000D01*
X95118750Y-151000000D01*
X95085057Y-150998345D01*
X95051688Y-150993395D01*
X95018965Y-150985198D01*
X94987203Y-150973834D01*
X94956707Y-150959410D01*
X94927773Y-150942068D01*
X94900677Y-150921972D01*
X94875682Y-150899318D01*
X94853028Y-150874323D01*
X94832932Y-150847227D01*
X94815590Y-150818293D01*
X94801166Y-150787797D01*
X94789802Y-150756035D01*
X94781605Y-150723312D01*
X94776655Y-150689943D01*
X94775000Y-150656250D01*
X94775000Y-149543750D01*
X94776655Y-149510057D01*
X94781605Y-149476688D01*
X94789802Y-149443965D01*
X94801166Y-149412203D01*
X94815590Y-149381707D01*
X94832932Y-149352773D01*
X94853028Y-149325677D01*
X94875682Y-149300682D01*
X94900677Y-149278028D01*
X94927773Y-149257932D01*
X94956707Y-149240590D01*
X94987203Y-149226166D01*
X95018965Y-149214802D01*
X95051688Y-149206605D01*
X95085057Y-149201655D01*
X95118750Y-149200000D01*
X95806250Y-149200000D01*
X95839943Y-149201655D01*
X95839943Y-149201655D01*
G37*
D23*
X95462500Y-150100000D03*
G04 #@! TD*
D20*
G04 #@! TO.C,C5*
G36*
X73789943Y-154776655D02*
X73823312Y-154781605D01*
X73856035Y-154789802D01*
X73887797Y-154801166D01*
X73918293Y-154815590D01*
X73947227Y-154832932D01*
X73974323Y-154853028D01*
X73999318Y-154875682D01*
X74021972Y-154900677D01*
X74042068Y-154927773D01*
X74059410Y-154956707D01*
X74073834Y-154987203D01*
X74085198Y-155018965D01*
X74093395Y-155051688D01*
X74098345Y-155085057D01*
X74100000Y-155118750D01*
X74100000Y-155806250D01*
X74098345Y-155839943D01*
X74093395Y-155873312D01*
X74085198Y-155906035D01*
X74073834Y-155937797D01*
X74059410Y-155968293D01*
X74042068Y-155997227D01*
X74021972Y-156024323D01*
X73999318Y-156049318D01*
X73974323Y-156071972D01*
X73947227Y-156092068D01*
X73918293Y-156109410D01*
X73887797Y-156123834D01*
X73856035Y-156135198D01*
X73823312Y-156143395D01*
X73789943Y-156148345D01*
X73756250Y-156150000D01*
X72643750Y-156150000D01*
X72610057Y-156148345D01*
X72576688Y-156143395D01*
X72543965Y-156135198D01*
X72512203Y-156123834D01*
X72481707Y-156109410D01*
X72452773Y-156092068D01*
X72425677Y-156071972D01*
X72400682Y-156049318D01*
X72378028Y-156024323D01*
X72357932Y-155997227D01*
X72340590Y-155968293D01*
X72326166Y-155937797D01*
X72314802Y-155906035D01*
X72306605Y-155873312D01*
X72301655Y-155839943D01*
X72300000Y-155806250D01*
X72300000Y-155118750D01*
X72301655Y-155085057D01*
X72306605Y-155051688D01*
X72314802Y-155018965D01*
X72326166Y-154987203D01*
X72340590Y-154956707D01*
X72357932Y-154927773D01*
X72378028Y-154900677D01*
X72400682Y-154875682D01*
X72425677Y-154853028D01*
X72452773Y-154832932D01*
X72481707Y-154815590D01*
X72512203Y-154801166D01*
X72543965Y-154789802D01*
X72576688Y-154781605D01*
X72610057Y-154776655D01*
X72643750Y-154775000D01*
X73756250Y-154775000D01*
X73789943Y-154776655D01*
X73789943Y-154776655D01*
G37*
D23*
X73200000Y-155462500D03*
D20*
G36*
X73789943Y-156651655D02*
X73823312Y-156656605D01*
X73856035Y-156664802D01*
X73887797Y-156676166D01*
X73918293Y-156690590D01*
X73947227Y-156707932D01*
X73974323Y-156728028D01*
X73999318Y-156750682D01*
X74021972Y-156775677D01*
X74042068Y-156802773D01*
X74059410Y-156831707D01*
X74073834Y-156862203D01*
X74085198Y-156893965D01*
X74093395Y-156926688D01*
X74098345Y-156960057D01*
X74100000Y-156993750D01*
X74100000Y-157681250D01*
X74098345Y-157714943D01*
X74093395Y-157748312D01*
X74085198Y-157781035D01*
X74073834Y-157812797D01*
X74059410Y-157843293D01*
X74042068Y-157872227D01*
X74021972Y-157899323D01*
X73999318Y-157924318D01*
X73974323Y-157946972D01*
X73947227Y-157967068D01*
X73918293Y-157984410D01*
X73887797Y-157998834D01*
X73856035Y-158010198D01*
X73823312Y-158018395D01*
X73789943Y-158023345D01*
X73756250Y-158025000D01*
X72643750Y-158025000D01*
X72610057Y-158023345D01*
X72576688Y-158018395D01*
X72543965Y-158010198D01*
X72512203Y-157998834D01*
X72481707Y-157984410D01*
X72452773Y-157967068D01*
X72425677Y-157946972D01*
X72400682Y-157924318D01*
X72378028Y-157899323D01*
X72357932Y-157872227D01*
X72340590Y-157843293D01*
X72326166Y-157812797D01*
X72314802Y-157781035D01*
X72306605Y-157748312D01*
X72301655Y-157714943D01*
X72300000Y-157681250D01*
X72300000Y-156993750D01*
X72301655Y-156960057D01*
X72306605Y-156926688D01*
X72314802Y-156893965D01*
X72326166Y-156862203D01*
X72340590Y-156831707D01*
X72357932Y-156802773D01*
X72378028Y-156775677D01*
X72400682Y-156750682D01*
X72425677Y-156728028D01*
X72452773Y-156707932D01*
X72481707Y-156690590D01*
X72512203Y-156676166D01*
X72543965Y-156664802D01*
X72576688Y-156656605D01*
X72610057Y-156651655D01*
X72643750Y-156650000D01*
X73756250Y-156650000D01*
X73789943Y-156651655D01*
X73789943Y-156651655D01*
G37*
D23*
X73200000Y-157337500D03*
G04 #@! TD*
D24*
G04 #@! TO.C,C1*
X60500000Y-108300000D03*
D25*
X60500000Y-110800000D03*
G04 #@! TD*
D20*
G04 #@! TO.C,C3*
G36*
X106996071Y-85851623D02*
X107028781Y-85856475D01*
X107060857Y-85864509D01*
X107091991Y-85875649D01*
X107121884Y-85889787D01*
X107150247Y-85906787D01*
X107176807Y-85926485D01*
X107201308Y-85948692D01*
X107223515Y-85973193D01*
X107243213Y-85999753D01*
X107260213Y-86028116D01*
X107274351Y-86058009D01*
X107285491Y-86089143D01*
X107293525Y-86121219D01*
X107298377Y-86153929D01*
X107300000Y-86186956D01*
X107300000Y-87313044D01*
X107298377Y-87346071D01*
X107293525Y-87378781D01*
X107285491Y-87410857D01*
X107274351Y-87441991D01*
X107260213Y-87471884D01*
X107243213Y-87500247D01*
X107223515Y-87526807D01*
X107201308Y-87551308D01*
X107176807Y-87573515D01*
X107150247Y-87593213D01*
X107121884Y-87610213D01*
X107091991Y-87624351D01*
X107060857Y-87635491D01*
X107028781Y-87643525D01*
X106996071Y-87648377D01*
X106963044Y-87650000D01*
X106086956Y-87650000D01*
X106053929Y-87648377D01*
X106021219Y-87643525D01*
X105989143Y-87635491D01*
X105958009Y-87624351D01*
X105928116Y-87610213D01*
X105899753Y-87593213D01*
X105873193Y-87573515D01*
X105848692Y-87551308D01*
X105826485Y-87526807D01*
X105806787Y-87500247D01*
X105789787Y-87471884D01*
X105775649Y-87441991D01*
X105764509Y-87410857D01*
X105756475Y-87378781D01*
X105751623Y-87346071D01*
X105750000Y-87313044D01*
X105750000Y-86186956D01*
X105751623Y-86153929D01*
X105756475Y-86121219D01*
X105764509Y-86089143D01*
X105775649Y-86058009D01*
X105789787Y-86028116D01*
X105806787Y-85999753D01*
X105826485Y-85973193D01*
X105848692Y-85948692D01*
X105873193Y-85926485D01*
X105899753Y-85906787D01*
X105928116Y-85889787D01*
X105958009Y-85875649D01*
X105989143Y-85864509D01*
X106021219Y-85856475D01*
X106053929Y-85851623D01*
X106086956Y-85850000D01*
X106963044Y-85850000D01*
X106996071Y-85851623D01*
X106996071Y-85851623D01*
G37*
D26*
X106525000Y-86750000D03*
D20*
G36*
X104946071Y-85851623D02*
X104978781Y-85856475D01*
X105010857Y-85864509D01*
X105041991Y-85875649D01*
X105071884Y-85889787D01*
X105100247Y-85906787D01*
X105126807Y-85926485D01*
X105151308Y-85948692D01*
X105173515Y-85973193D01*
X105193213Y-85999753D01*
X105210213Y-86028116D01*
X105224351Y-86058009D01*
X105235491Y-86089143D01*
X105243525Y-86121219D01*
X105248377Y-86153929D01*
X105250000Y-86186956D01*
X105250000Y-87313044D01*
X105248377Y-87346071D01*
X105243525Y-87378781D01*
X105235491Y-87410857D01*
X105224351Y-87441991D01*
X105210213Y-87471884D01*
X105193213Y-87500247D01*
X105173515Y-87526807D01*
X105151308Y-87551308D01*
X105126807Y-87573515D01*
X105100247Y-87593213D01*
X105071884Y-87610213D01*
X105041991Y-87624351D01*
X105010857Y-87635491D01*
X104978781Y-87643525D01*
X104946071Y-87648377D01*
X104913044Y-87650000D01*
X104036956Y-87650000D01*
X104003929Y-87648377D01*
X103971219Y-87643525D01*
X103939143Y-87635491D01*
X103908009Y-87624351D01*
X103878116Y-87610213D01*
X103849753Y-87593213D01*
X103823193Y-87573515D01*
X103798692Y-87551308D01*
X103776485Y-87526807D01*
X103756787Y-87500247D01*
X103739787Y-87471884D01*
X103725649Y-87441991D01*
X103714509Y-87410857D01*
X103706475Y-87378781D01*
X103701623Y-87346071D01*
X103700000Y-87313044D01*
X103700000Y-86186956D01*
X103701623Y-86153929D01*
X103706475Y-86121219D01*
X103714509Y-86089143D01*
X103725649Y-86058009D01*
X103739787Y-86028116D01*
X103756787Y-85999753D01*
X103776485Y-85973193D01*
X103798692Y-85948692D01*
X103823193Y-85926485D01*
X103849753Y-85906787D01*
X103878116Y-85889787D01*
X103908009Y-85875649D01*
X103939143Y-85864509D01*
X103971219Y-85856475D01*
X104003929Y-85851623D01*
X104036956Y-85850000D01*
X104913044Y-85850000D01*
X104946071Y-85851623D01*
X104946071Y-85851623D01*
G37*
D26*
X104475000Y-86750000D03*
G04 #@! TD*
D20*
G04 #@! TO.C,C4*
G36*
X106996071Y-76101623D02*
X107028781Y-76106475D01*
X107060857Y-76114509D01*
X107091991Y-76125649D01*
X107121884Y-76139787D01*
X107150247Y-76156787D01*
X107176807Y-76176485D01*
X107201308Y-76198692D01*
X107223515Y-76223193D01*
X107243213Y-76249753D01*
X107260213Y-76278116D01*
X107274351Y-76308009D01*
X107285491Y-76339143D01*
X107293525Y-76371219D01*
X107298377Y-76403929D01*
X107300000Y-76436956D01*
X107300000Y-77563044D01*
X107298377Y-77596071D01*
X107293525Y-77628781D01*
X107285491Y-77660857D01*
X107274351Y-77691991D01*
X107260213Y-77721884D01*
X107243213Y-77750247D01*
X107223515Y-77776807D01*
X107201308Y-77801308D01*
X107176807Y-77823515D01*
X107150247Y-77843213D01*
X107121884Y-77860213D01*
X107091991Y-77874351D01*
X107060857Y-77885491D01*
X107028781Y-77893525D01*
X106996071Y-77898377D01*
X106963044Y-77900000D01*
X106086956Y-77900000D01*
X106053929Y-77898377D01*
X106021219Y-77893525D01*
X105989143Y-77885491D01*
X105958009Y-77874351D01*
X105928116Y-77860213D01*
X105899753Y-77843213D01*
X105873193Y-77823515D01*
X105848692Y-77801308D01*
X105826485Y-77776807D01*
X105806787Y-77750247D01*
X105789787Y-77721884D01*
X105775649Y-77691991D01*
X105764509Y-77660857D01*
X105756475Y-77628781D01*
X105751623Y-77596071D01*
X105750000Y-77563044D01*
X105750000Y-76436956D01*
X105751623Y-76403929D01*
X105756475Y-76371219D01*
X105764509Y-76339143D01*
X105775649Y-76308009D01*
X105789787Y-76278116D01*
X105806787Y-76249753D01*
X105826485Y-76223193D01*
X105848692Y-76198692D01*
X105873193Y-76176485D01*
X105899753Y-76156787D01*
X105928116Y-76139787D01*
X105958009Y-76125649D01*
X105989143Y-76114509D01*
X106021219Y-76106475D01*
X106053929Y-76101623D01*
X106086956Y-76100000D01*
X106963044Y-76100000D01*
X106996071Y-76101623D01*
X106996071Y-76101623D01*
G37*
D26*
X106525000Y-77000000D03*
D20*
G36*
X104946071Y-76101623D02*
X104978781Y-76106475D01*
X105010857Y-76114509D01*
X105041991Y-76125649D01*
X105071884Y-76139787D01*
X105100247Y-76156787D01*
X105126807Y-76176485D01*
X105151308Y-76198692D01*
X105173515Y-76223193D01*
X105193213Y-76249753D01*
X105210213Y-76278116D01*
X105224351Y-76308009D01*
X105235491Y-76339143D01*
X105243525Y-76371219D01*
X105248377Y-76403929D01*
X105250000Y-76436956D01*
X105250000Y-77563044D01*
X105248377Y-77596071D01*
X105243525Y-77628781D01*
X105235491Y-77660857D01*
X105224351Y-77691991D01*
X105210213Y-77721884D01*
X105193213Y-77750247D01*
X105173515Y-77776807D01*
X105151308Y-77801308D01*
X105126807Y-77823515D01*
X105100247Y-77843213D01*
X105071884Y-77860213D01*
X105041991Y-77874351D01*
X105010857Y-77885491D01*
X104978781Y-77893525D01*
X104946071Y-77898377D01*
X104913044Y-77900000D01*
X104036956Y-77900000D01*
X104003929Y-77898377D01*
X103971219Y-77893525D01*
X103939143Y-77885491D01*
X103908009Y-77874351D01*
X103878116Y-77860213D01*
X103849753Y-77843213D01*
X103823193Y-77823515D01*
X103798692Y-77801308D01*
X103776485Y-77776807D01*
X103756787Y-77750247D01*
X103739787Y-77721884D01*
X103725649Y-77691991D01*
X103714509Y-77660857D01*
X103706475Y-77628781D01*
X103701623Y-77596071D01*
X103700000Y-77563044D01*
X103700000Y-76436956D01*
X103701623Y-76403929D01*
X103706475Y-76371219D01*
X103714509Y-76339143D01*
X103725649Y-76308009D01*
X103739787Y-76278116D01*
X103756787Y-76249753D01*
X103776485Y-76223193D01*
X103798692Y-76198692D01*
X103823193Y-76176485D01*
X103849753Y-76156787D01*
X103878116Y-76139787D01*
X103908009Y-76125649D01*
X103939143Y-76114509D01*
X103971219Y-76106475D01*
X104003929Y-76101623D01*
X104036956Y-76100000D01*
X104913044Y-76100000D01*
X104946071Y-76101623D01*
X104946071Y-76101623D01*
G37*
D26*
X104475000Y-77000000D03*
G04 #@! TD*
D27*
G04 #@! TO.C,C6*
X112000000Y-139000000D03*
X112000000Y-129000000D03*
G04 #@! TD*
G04 #@! TO.C,C7*
X117000000Y-129100000D03*
X117000000Y-139100000D03*
G04 #@! TD*
D20*
G04 #@! TO.C,C9*
G36*
X58596071Y-166101623D02*
X58628781Y-166106475D01*
X58660857Y-166114509D01*
X58691991Y-166125649D01*
X58721884Y-166139787D01*
X58750247Y-166156787D01*
X58776807Y-166176485D01*
X58801308Y-166198692D01*
X58823515Y-166223193D01*
X58843213Y-166249753D01*
X58860213Y-166278116D01*
X58874351Y-166308009D01*
X58885491Y-166339143D01*
X58893525Y-166371219D01*
X58898377Y-166403929D01*
X58900000Y-166436956D01*
X58900000Y-167313044D01*
X58898377Y-167346071D01*
X58893525Y-167378781D01*
X58885491Y-167410857D01*
X58874351Y-167441991D01*
X58860213Y-167471884D01*
X58843213Y-167500247D01*
X58823515Y-167526807D01*
X58801308Y-167551308D01*
X58776807Y-167573515D01*
X58750247Y-167593213D01*
X58721884Y-167610213D01*
X58691991Y-167624351D01*
X58660857Y-167635491D01*
X58628781Y-167643525D01*
X58596071Y-167648377D01*
X58563044Y-167650000D01*
X57436956Y-167650000D01*
X57403929Y-167648377D01*
X57371219Y-167643525D01*
X57339143Y-167635491D01*
X57308009Y-167624351D01*
X57278116Y-167610213D01*
X57249753Y-167593213D01*
X57223193Y-167573515D01*
X57198692Y-167551308D01*
X57176485Y-167526807D01*
X57156787Y-167500247D01*
X57139787Y-167471884D01*
X57125649Y-167441991D01*
X57114509Y-167410857D01*
X57106475Y-167378781D01*
X57101623Y-167346071D01*
X57100000Y-167313044D01*
X57100000Y-166436956D01*
X57101623Y-166403929D01*
X57106475Y-166371219D01*
X57114509Y-166339143D01*
X57125649Y-166308009D01*
X57139787Y-166278116D01*
X57156787Y-166249753D01*
X57176485Y-166223193D01*
X57198692Y-166198692D01*
X57223193Y-166176485D01*
X57249753Y-166156787D01*
X57278116Y-166139787D01*
X57308009Y-166125649D01*
X57339143Y-166114509D01*
X57371219Y-166106475D01*
X57403929Y-166101623D01*
X57436956Y-166100000D01*
X58563044Y-166100000D01*
X58596071Y-166101623D01*
X58596071Y-166101623D01*
G37*
D26*
X58000000Y-166875000D03*
D20*
G36*
X58596071Y-164051623D02*
X58628781Y-164056475D01*
X58660857Y-164064509D01*
X58691991Y-164075649D01*
X58721884Y-164089787D01*
X58750247Y-164106787D01*
X58776807Y-164126485D01*
X58801308Y-164148692D01*
X58823515Y-164173193D01*
X58843213Y-164199753D01*
X58860213Y-164228116D01*
X58874351Y-164258009D01*
X58885491Y-164289143D01*
X58893525Y-164321219D01*
X58898377Y-164353929D01*
X58900000Y-164386956D01*
X58900000Y-165263044D01*
X58898377Y-165296071D01*
X58893525Y-165328781D01*
X58885491Y-165360857D01*
X58874351Y-165391991D01*
X58860213Y-165421884D01*
X58843213Y-165450247D01*
X58823515Y-165476807D01*
X58801308Y-165501308D01*
X58776807Y-165523515D01*
X58750247Y-165543213D01*
X58721884Y-165560213D01*
X58691991Y-165574351D01*
X58660857Y-165585491D01*
X58628781Y-165593525D01*
X58596071Y-165598377D01*
X58563044Y-165600000D01*
X57436956Y-165600000D01*
X57403929Y-165598377D01*
X57371219Y-165593525D01*
X57339143Y-165585491D01*
X57308009Y-165574351D01*
X57278116Y-165560213D01*
X57249753Y-165543213D01*
X57223193Y-165523515D01*
X57198692Y-165501308D01*
X57176485Y-165476807D01*
X57156787Y-165450247D01*
X57139787Y-165421884D01*
X57125649Y-165391991D01*
X57114509Y-165360857D01*
X57106475Y-165328781D01*
X57101623Y-165296071D01*
X57100000Y-165263044D01*
X57100000Y-164386956D01*
X57101623Y-164353929D01*
X57106475Y-164321219D01*
X57114509Y-164289143D01*
X57125649Y-164258009D01*
X57139787Y-164228116D01*
X57156787Y-164199753D01*
X57176485Y-164173193D01*
X57198692Y-164148692D01*
X57223193Y-164126485D01*
X57249753Y-164106787D01*
X57278116Y-164089787D01*
X57308009Y-164075649D01*
X57339143Y-164064509D01*
X57371219Y-164056475D01*
X57403929Y-164051623D01*
X57436956Y-164050000D01*
X58563044Y-164050000D01*
X58596071Y-164051623D01*
X58596071Y-164051623D01*
G37*
D26*
X58000000Y-164825000D03*
G04 #@! TD*
D20*
G04 #@! TO.C,C10*
G36*
X80089943Y-81776655D02*
X80123312Y-81781605D01*
X80156035Y-81789802D01*
X80187797Y-81801166D01*
X80218293Y-81815590D01*
X80247227Y-81832932D01*
X80274323Y-81853028D01*
X80299318Y-81875682D01*
X80321972Y-81900677D01*
X80342068Y-81927773D01*
X80359410Y-81956707D01*
X80373834Y-81987203D01*
X80385198Y-82018965D01*
X80393395Y-82051688D01*
X80398345Y-82085057D01*
X80400000Y-82118750D01*
X80400000Y-82806250D01*
X80398345Y-82839943D01*
X80393395Y-82873312D01*
X80385198Y-82906035D01*
X80373834Y-82937797D01*
X80359410Y-82968293D01*
X80342068Y-82997227D01*
X80321972Y-83024323D01*
X80299318Y-83049318D01*
X80274323Y-83071972D01*
X80247227Y-83092068D01*
X80218293Y-83109410D01*
X80187797Y-83123834D01*
X80156035Y-83135198D01*
X80123312Y-83143395D01*
X80089943Y-83148345D01*
X80056250Y-83150000D01*
X78943750Y-83150000D01*
X78910057Y-83148345D01*
X78876688Y-83143395D01*
X78843965Y-83135198D01*
X78812203Y-83123834D01*
X78781707Y-83109410D01*
X78752773Y-83092068D01*
X78725677Y-83071972D01*
X78700682Y-83049318D01*
X78678028Y-83024323D01*
X78657932Y-82997227D01*
X78640590Y-82968293D01*
X78626166Y-82937797D01*
X78614802Y-82906035D01*
X78606605Y-82873312D01*
X78601655Y-82839943D01*
X78600000Y-82806250D01*
X78600000Y-82118750D01*
X78601655Y-82085057D01*
X78606605Y-82051688D01*
X78614802Y-82018965D01*
X78626166Y-81987203D01*
X78640590Y-81956707D01*
X78657932Y-81927773D01*
X78678028Y-81900677D01*
X78700682Y-81875682D01*
X78725677Y-81853028D01*
X78752773Y-81832932D01*
X78781707Y-81815590D01*
X78812203Y-81801166D01*
X78843965Y-81789802D01*
X78876688Y-81781605D01*
X78910057Y-81776655D01*
X78943750Y-81775000D01*
X80056250Y-81775000D01*
X80089943Y-81776655D01*
X80089943Y-81776655D01*
G37*
D23*
X79500000Y-82462500D03*
D20*
G36*
X80089943Y-83651655D02*
X80123312Y-83656605D01*
X80156035Y-83664802D01*
X80187797Y-83676166D01*
X80218293Y-83690590D01*
X80247227Y-83707932D01*
X80274323Y-83728028D01*
X80299318Y-83750682D01*
X80321972Y-83775677D01*
X80342068Y-83802773D01*
X80359410Y-83831707D01*
X80373834Y-83862203D01*
X80385198Y-83893965D01*
X80393395Y-83926688D01*
X80398345Y-83960057D01*
X80400000Y-83993750D01*
X80400000Y-84681250D01*
X80398345Y-84714943D01*
X80393395Y-84748312D01*
X80385198Y-84781035D01*
X80373834Y-84812797D01*
X80359410Y-84843293D01*
X80342068Y-84872227D01*
X80321972Y-84899323D01*
X80299318Y-84924318D01*
X80274323Y-84946972D01*
X80247227Y-84967068D01*
X80218293Y-84984410D01*
X80187797Y-84998834D01*
X80156035Y-85010198D01*
X80123312Y-85018395D01*
X80089943Y-85023345D01*
X80056250Y-85025000D01*
X78943750Y-85025000D01*
X78910057Y-85023345D01*
X78876688Y-85018395D01*
X78843965Y-85010198D01*
X78812203Y-84998834D01*
X78781707Y-84984410D01*
X78752773Y-84967068D01*
X78725677Y-84946972D01*
X78700682Y-84924318D01*
X78678028Y-84899323D01*
X78657932Y-84872227D01*
X78640590Y-84843293D01*
X78626166Y-84812797D01*
X78614802Y-84781035D01*
X78606605Y-84748312D01*
X78601655Y-84714943D01*
X78600000Y-84681250D01*
X78600000Y-83993750D01*
X78601655Y-83960057D01*
X78606605Y-83926688D01*
X78614802Y-83893965D01*
X78626166Y-83862203D01*
X78640590Y-83831707D01*
X78657932Y-83802773D01*
X78678028Y-83775677D01*
X78700682Y-83750682D01*
X78725677Y-83728028D01*
X78752773Y-83707932D01*
X78781707Y-83690590D01*
X78812203Y-83676166D01*
X78843965Y-83664802D01*
X78876688Y-83656605D01*
X78910057Y-83651655D01*
X78943750Y-83650000D01*
X80056250Y-83650000D01*
X80089943Y-83651655D01*
X80089943Y-83651655D01*
G37*
D23*
X79500000Y-84337500D03*
G04 #@! TD*
D11*
G04 #@! TO.C,D1*
X60500000Y-119040000D03*
D28*
X60500000Y-116500000D03*
G04 #@! TD*
D29*
G04 #@! TO.C,D2*
X104550000Y-83700000D03*
X106450000Y-83700000D03*
X105500000Y-81700000D03*
G04 #@! TD*
D28*
G04 #@! TO.C,D4*
X97800000Y-120900000D03*
D11*
X95260000Y-120900000D03*
G04 #@! TD*
D30*
G04 #@! TO.C,D5*
X80600000Y-150100000D03*
X88400000Y-150100000D03*
G04 #@! TD*
D28*
G04 #@! TO.C,D6*
X97800000Y-131600000D03*
D11*
X95260000Y-131600000D03*
G04 #@! TD*
G04 #@! TO.C,D8*
X95260000Y-143000000D03*
D28*
X97800000Y-143000000D03*
G04 #@! TD*
D30*
G04 #@! TO.C,D11*
X80600000Y-161900000D03*
X88400000Y-161900000D03*
G04 #@! TD*
D16*
G04 #@! TO.C,P1*
X67000000Y-79400000D03*
D17*
X67000000Y-81940000D03*
X67000000Y-84480000D03*
X67000000Y-87020000D03*
X67000000Y-89560000D03*
X67000000Y-92100000D03*
X67000000Y-94640000D03*
X67000000Y-97180000D03*
X67000000Y-99720000D03*
X67000000Y-102260000D03*
X67000000Y-104800000D03*
X67000000Y-107340000D03*
X67000000Y-109880000D03*
X67000000Y-112420000D03*
X67000000Y-114960000D03*
X67000000Y-117500000D03*
X67000000Y-120040000D03*
X67000000Y-122580000D03*
X67000000Y-125120000D03*
X67000000Y-127660000D03*
X67000000Y-130200000D03*
X67000000Y-132740000D03*
X67000000Y-135280000D03*
X67000000Y-137820000D03*
X67000000Y-140360000D03*
G04 #@! TD*
D29*
G04 #@! TO.C,Q1*
X92150000Y-128100000D03*
X94050000Y-128100000D03*
X93100000Y-126100000D03*
G04 #@! TD*
G04 #@! TO.C,Q2*
X86300000Y-126100000D03*
X87250000Y-128100000D03*
X85350000Y-128100000D03*
G04 #@! TD*
D20*
G04 #@! TO.C,R1*
G36*
X99939943Y-138201655D02*
X99973312Y-138206605D01*
X100006035Y-138214802D01*
X100037797Y-138226166D01*
X100068293Y-138240590D01*
X100097227Y-138257932D01*
X100124323Y-138278028D01*
X100149318Y-138300682D01*
X100171972Y-138325677D01*
X100192068Y-138352773D01*
X100209410Y-138381707D01*
X100223834Y-138412203D01*
X100235198Y-138443965D01*
X100243395Y-138476688D01*
X100248345Y-138510057D01*
X100250000Y-138543750D01*
X100250000Y-139656250D01*
X100248345Y-139689943D01*
X100243395Y-139723312D01*
X100235198Y-139756035D01*
X100223834Y-139787797D01*
X100209410Y-139818293D01*
X100192068Y-139847227D01*
X100171972Y-139874323D01*
X100149318Y-139899318D01*
X100124323Y-139921972D01*
X100097227Y-139942068D01*
X100068293Y-139959410D01*
X100037797Y-139973834D01*
X100006035Y-139985198D01*
X99973312Y-139993395D01*
X99939943Y-139998345D01*
X99906250Y-140000000D01*
X99218750Y-140000000D01*
X99185057Y-139998345D01*
X99151688Y-139993395D01*
X99118965Y-139985198D01*
X99087203Y-139973834D01*
X99056707Y-139959410D01*
X99027773Y-139942068D01*
X99000677Y-139921972D01*
X98975682Y-139899318D01*
X98953028Y-139874323D01*
X98932932Y-139847227D01*
X98915590Y-139818293D01*
X98901166Y-139787797D01*
X98889802Y-139756035D01*
X98881605Y-139723312D01*
X98876655Y-139689943D01*
X98875000Y-139656250D01*
X98875000Y-138543750D01*
X98876655Y-138510057D01*
X98881605Y-138476688D01*
X98889802Y-138443965D01*
X98901166Y-138412203D01*
X98915590Y-138381707D01*
X98932932Y-138352773D01*
X98953028Y-138325677D01*
X98975682Y-138300682D01*
X99000677Y-138278028D01*
X99027773Y-138257932D01*
X99056707Y-138240590D01*
X99087203Y-138226166D01*
X99118965Y-138214802D01*
X99151688Y-138206605D01*
X99185057Y-138201655D01*
X99218750Y-138200000D01*
X99906250Y-138200000D01*
X99939943Y-138201655D01*
X99939943Y-138201655D01*
G37*
D23*
X99562500Y-139100000D03*
D20*
G36*
X101814943Y-138201655D02*
X101848312Y-138206605D01*
X101881035Y-138214802D01*
X101912797Y-138226166D01*
X101943293Y-138240590D01*
X101972227Y-138257932D01*
X101999323Y-138278028D01*
X102024318Y-138300682D01*
X102046972Y-138325677D01*
X102067068Y-138352773D01*
X102084410Y-138381707D01*
X102098834Y-138412203D01*
X102110198Y-138443965D01*
X102118395Y-138476688D01*
X102123345Y-138510057D01*
X102125000Y-138543750D01*
X102125000Y-139656250D01*
X102123345Y-139689943D01*
X102118395Y-139723312D01*
X102110198Y-139756035D01*
X102098834Y-139787797D01*
X102084410Y-139818293D01*
X102067068Y-139847227D01*
X102046972Y-139874323D01*
X102024318Y-139899318D01*
X101999323Y-139921972D01*
X101972227Y-139942068D01*
X101943293Y-139959410D01*
X101912797Y-139973834D01*
X101881035Y-139985198D01*
X101848312Y-139993395D01*
X101814943Y-139998345D01*
X101781250Y-140000000D01*
X101093750Y-140000000D01*
X101060057Y-139998345D01*
X101026688Y-139993395D01*
X100993965Y-139985198D01*
X100962203Y-139973834D01*
X100931707Y-139959410D01*
X100902773Y-139942068D01*
X100875677Y-139921972D01*
X100850682Y-139899318D01*
X100828028Y-139874323D01*
X100807932Y-139847227D01*
X100790590Y-139818293D01*
X100776166Y-139787797D01*
X100764802Y-139756035D01*
X100756605Y-139723312D01*
X100751655Y-139689943D01*
X100750000Y-139656250D01*
X100750000Y-138543750D01*
X100751655Y-138510057D01*
X100756605Y-138476688D01*
X100764802Y-138443965D01*
X100776166Y-138412203D01*
X100790590Y-138381707D01*
X100807932Y-138352773D01*
X100828028Y-138325677D01*
X100850682Y-138300682D01*
X100875677Y-138278028D01*
X100902773Y-138257932D01*
X100931707Y-138240590D01*
X100962203Y-138226166D01*
X100993965Y-138214802D01*
X101026688Y-138206605D01*
X101060057Y-138201655D01*
X101093750Y-138200000D01*
X101781250Y-138200000D01*
X101814943Y-138201655D01*
X101814943Y-138201655D01*
G37*
D23*
X101437500Y-139100000D03*
G04 #@! TD*
D20*
G04 #@! TO.C,R2*
G36*
X101814943Y-146701655D02*
X101848312Y-146706605D01*
X101881035Y-146714802D01*
X101912797Y-146726166D01*
X101943293Y-146740590D01*
X101972227Y-146757932D01*
X101999323Y-146778028D01*
X102024318Y-146800682D01*
X102046972Y-146825677D01*
X102067068Y-146852773D01*
X102084410Y-146881707D01*
X102098834Y-146912203D01*
X102110198Y-146943965D01*
X102118395Y-146976688D01*
X102123345Y-147010057D01*
X102125000Y-147043750D01*
X102125000Y-148156250D01*
X102123345Y-148189943D01*
X102118395Y-148223312D01*
X102110198Y-148256035D01*
X102098834Y-148287797D01*
X102084410Y-148318293D01*
X102067068Y-148347227D01*
X102046972Y-148374323D01*
X102024318Y-148399318D01*
X101999323Y-148421972D01*
X101972227Y-148442068D01*
X101943293Y-148459410D01*
X101912797Y-148473834D01*
X101881035Y-148485198D01*
X101848312Y-148493395D01*
X101814943Y-148498345D01*
X101781250Y-148500000D01*
X101093750Y-148500000D01*
X101060057Y-148498345D01*
X101026688Y-148493395D01*
X100993965Y-148485198D01*
X100962203Y-148473834D01*
X100931707Y-148459410D01*
X100902773Y-148442068D01*
X100875677Y-148421972D01*
X100850682Y-148399318D01*
X100828028Y-148374323D01*
X100807932Y-148347227D01*
X100790590Y-148318293D01*
X100776166Y-148287797D01*
X100764802Y-148256035D01*
X100756605Y-148223312D01*
X100751655Y-148189943D01*
X100750000Y-148156250D01*
X100750000Y-147043750D01*
X100751655Y-147010057D01*
X100756605Y-146976688D01*
X100764802Y-146943965D01*
X100776166Y-146912203D01*
X100790590Y-146881707D01*
X100807932Y-146852773D01*
X100828028Y-146825677D01*
X100850682Y-146800682D01*
X100875677Y-146778028D01*
X100902773Y-146757932D01*
X100931707Y-146740590D01*
X100962203Y-146726166D01*
X100993965Y-146714802D01*
X101026688Y-146706605D01*
X101060057Y-146701655D01*
X101093750Y-146700000D01*
X101781250Y-146700000D01*
X101814943Y-146701655D01*
X101814943Y-146701655D01*
G37*
D23*
X101437500Y-147600000D03*
D20*
G36*
X99939943Y-146701655D02*
X99973312Y-146706605D01*
X100006035Y-146714802D01*
X100037797Y-146726166D01*
X100068293Y-146740590D01*
X100097227Y-146757932D01*
X100124323Y-146778028D01*
X100149318Y-146800682D01*
X100171972Y-146825677D01*
X100192068Y-146852773D01*
X100209410Y-146881707D01*
X100223834Y-146912203D01*
X100235198Y-146943965D01*
X100243395Y-146976688D01*
X100248345Y-147010057D01*
X100250000Y-147043750D01*
X100250000Y-148156250D01*
X100248345Y-148189943D01*
X100243395Y-148223312D01*
X100235198Y-148256035D01*
X100223834Y-148287797D01*
X100209410Y-148318293D01*
X100192068Y-148347227D01*
X100171972Y-148374323D01*
X100149318Y-148399318D01*
X100124323Y-148421972D01*
X100097227Y-148442068D01*
X100068293Y-148459410D01*
X100037797Y-148473834D01*
X100006035Y-148485198D01*
X99973312Y-148493395D01*
X99939943Y-148498345D01*
X99906250Y-148500000D01*
X99218750Y-148500000D01*
X99185057Y-148498345D01*
X99151688Y-148493395D01*
X99118965Y-148485198D01*
X99087203Y-148473834D01*
X99056707Y-148459410D01*
X99027773Y-148442068D01*
X99000677Y-148421972D01*
X98975682Y-148399318D01*
X98953028Y-148374323D01*
X98932932Y-148347227D01*
X98915590Y-148318293D01*
X98901166Y-148287797D01*
X98889802Y-148256035D01*
X98881605Y-148223312D01*
X98876655Y-148189943D01*
X98875000Y-148156250D01*
X98875000Y-147043750D01*
X98876655Y-147010057D01*
X98881605Y-146976688D01*
X98889802Y-146943965D01*
X98901166Y-146912203D01*
X98915590Y-146881707D01*
X98932932Y-146852773D01*
X98953028Y-146825677D01*
X98975682Y-146800682D01*
X99000677Y-146778028D01*
X99027773Y-146757932D01*
X99056707Y-146740590D01*
X99087203Y-146726166D01*
X99118965Y-146714802D01*
X99151688Y-146706605D01*
X99185057Y-146701655D01*
X99218750Y-146700000D01*
X99906250Y-146700000D01*
X99939943Y-146701655D01*
X99939943Y-146701655D01*
G37*
D23*
X99562500Y-147600000D03*
G04 #@! TD*
D20*
G04 #@! TO.C,R3*
G36*
X64689943Y-119301655D02*
X64723312Y-119306605D01*
X64756035Y-119314802D01*
X64787797Y-119326166D01*
X64818293Y-119340590D01*
X64847227Y-119357932D01*
X64874323Y-119378028D01*
X64899318Y-119400682D01*
X64921972Y-119425677D01*
X64942068Y-119452773D01*
X64959410Y-119481707D01*
X64973834Y-119512203D01*
X64985198Y-119543965D01*
X64993395Y-119576688D01*
X64998345Y-119610057D01*
X65000000Y-119643750D01*
X65000000Y-120331250D01*
X64998345Y-120364943D01*
X64993395Y-120398312D01*
X64985198Y-120431035D01*
X64973834Y-120462797D01*
X64959410Y-120493293D01*
X64942068Y-120522227D01*
X64921972Y-120549323D01*
X64899318Y-120574318D01*
X64874323Y-120596972D01*
X64847227Y-120617068D01*
X64818293Y-120634410D01*
X64787797Y-120648834D01*
X64756035Y-120660198D01*
X64723312Y-120668395D01*
X64689943Y-120673345D01*
X64656250Y-120675000D01*
X63543750Y-120675000D01*
X63510057Y-120673345D01*
X63476688Y-120668395D01*
X63443965Y-120660198D01*
X63412203Y-120648834D01*
X63381707Y-120634410D01*
X63352773Y-120617068D01*
X63325677Y-120596972D01*
X63300682Y-120574318D01*
X63278028Y-120549323D01*
X63257932Y-120522227D01*
X63240590Y-120493293D01*
X63226166Y-120462797D01*
X63214802Y-120431035D01*
X63206605Y-120398312D01*
X63201655Y-120364943D01*
X63200000Y-120331250D01*
X63200000Y-119643750D01*
X63201655Y-119610057D01*
X63206605Y-119576688D01*
X63214802Y-119543965D01*
X63226166Y-119512203D01*
X63240590Y-119481707D01*
X63257932Y-119452773D01*
X63278028Y-119425677D01*
X63300682Y-119400682D01*
X63325677Y-119378028D01*
X63352773Y-119357932D01*
X63381707Y-119340590D01*
X63412203Y-119326166D01*
X63443965Y-119314802D01*
X63476688Y-119306605D01*
X63510057Y-119301655D01*
X63543750Y-119300000D01*
X64656250Y-119300000D01*
X64689943Y-119301655D01*
X64689943Y-119301655D01*
G37*
D23*
X64100000Y-119987500D03*
D20*
G36*
X64689943Y-117426655D02*
X64723312Y-117431605D01*
X64756035Y-117439802D01*
X64787797Y-117451166D01*
X64818293Y-117465590D01*
X64847227Y-117482932D01*
X64874323Y-117503028D01*
X64899318Y-117525682D01*
X64921972Y-117550677D01*
X64942068Y-117577773D01*
X64959410Y-117606707D01*
X64973834Y-117637203D01*
X64985198Y-117668965D01*
X64993395Y-117701688D01*
X64998345Y-117735057D01*
X65000000Y-117768750D01*
X65000000Y-118456250D01*
X64998345Y-118489943D01*
X64993395Y-118523312D01*
X64985198Y-118556035D01*
X64973834Y-118587797D01*
X64959410Y-118618293D01*
X64942068Y-118647227D01*
X64921972Y-118674323D01*
X64899318Y-118699318D01*
X64874323Y-118721972D01*
X64847227Y-118742068D01*
X64818293Y-118759410D01*
X64787797Y-118773834D01*
X64756035Y-118785198D01*
X64723312Y-118793395D01*
X64689943Y-118798345D01*
X64656250Y-118800000D01*
X63543750Y-118800000D01*
X63510057Y-118798345D01*
X63476688Y-118793395D01*
X63443965Y-118785198D01*
X63412203Y-118773834D01*
X63381707Y-118759410D01*
X63352773Y-118742068D01*
X63325677Y-118721972D01*
X63300682Y-118699318D01*
X63278028Y-118674323D01*
X63257932Y-118647227D01*
X63240590Y-118618293D01*
X63226166Y-118587797D01*
X63214802Y-118556035D01*
X63206605Y-118523312D01*
X63201655Y-118489943D01*
X63200000Y-118456250D01*
X63200000Y-117768750D01*
X63201655Y-117735057D01*
X63206605Y-117701688D01*
X63214802Y-117668965D01*
X63226166Y-117637203D01*
X63240590Y-117606707D01*
X63257932Y-117577773D01*
X63278028Y-117550677D01*
X63300682Y-117525682D01*
X63325677Y-117503028D01*
X63352773Y-117482932D01*
X63381707Y-117465590D01*
X63412203Y-117451166D01*
X63443965Y-117439802D01*
X63476688Y-117431605D01*
X63510057Y-117426655D01*
X63543750Y-117425000D01*
X64656250Y-117425000D01*
X64689943Y-117426655D01*
X64689943Y-117426655D01*
G37*
D23*
X64100000Y-118112500D03*
G04 #@! TD*
D20*
G04 #@! TO.C,R4*
G36*
X70339943Y-111501655D02*
X70373312Y-111506605D01*
X70406035Y-111514802D01*
X70437797Y-111526166D01*
X70468293Y-111540590D01*
X70497227Y-111557932D01*
X70524323Y-111578028D01*
X70549318Y-111600682D01*
X70571972Y-111625677D01*
X70592068Y-111652773D01*
X70609410Y-111681707D01*
X70623834Y-111712203D01*
X70635198Y-111743965D01*
X70643395Y-111776688D01*
X70648345Y-111810057D01*
X70650000Y-111843750D01*
X70650000Y-112531250D01*
X70648345Y-112564943D01*
X70643395Y-112598312D01*
X70635198Y-112631035D01*
X70623834Y-112662797D01*
X70609410Y-112693293D01*
X70592068Y-112722227D01*
X70571972Y-112749323D01*
X70549318Y-112774318D01*
X70524323Y-112796972D01*
X70497227Y-112817068D01*
X70468293Y-112834410D01*
X70437797Y-112848834D01*
X70406035Y-112860198D01*
X70373312Y-112868395D01*
X70339943Y-112873345D01*
X70306250Y-112875000D01*
X69193750Y-112875000D01*
X69160057Y-112873345D01*
X69126688Y-112868395D01*
X69093965Y-112860198D01*
X69062203Y-112848834D01*
X69031707Y-112834410D01*
X69002773Y-112817068D01*
X68975677Y-112796972D01*
X68950682Y-112774318D01*
X68928028Y-112749323D01*
X68907932Y-112722227D01*
X68890590Y-112693293D01*
X68876166Y-112662797D01*
X68864802Y-112631035D01*
X68856605Y-112598312D01*
X68851655Y-112564943D01*
X68850000Y-112531250D01*
X68850000Y-111843750D01*
X68851655Y-111810057D01*
X68856605Y-111776688D01*
X68864802Y-111743965D01*
X68876166Y-111712203D01*
X68890590Y-111681707D01*
X68907932Y-111652773D01*
X68928028Y-111625677D01*
X68950682Y-111600682D01*
X68975677Y-111578028D01*
X69002773Y-111557932D01*
X69031707Y-111540590D01*
X69062203Y-111526166D01*
X69093965Y-111514802D01*
X69126688Y-111506605D01*
X69160057Y-111501655D01*
X69193750Y-111500000D01*
X70306250Y-111500000D01*
X70339943Y-111501655D01*
X70339943Y-111501655D01*
G37*
D23*
X69750000Y-112187500D03*
D20*
G36*
X70339943Y-109626655D02*
X70373312Y-109631605D01*
X70406035Y-109639802D01*
X70437797Y-109651166D01*
X70468293Y-109665590D01*
X70497227Y-109682932D01*
X70524323Y-109703028D01*
X70549318Y-109725682D01*
X70571972Y-109750677D01*
X70592068Y-109777773D01*
X70609410Y-109806707D01*
X70623834Y-109837203D01*
X70635198Y-109868965D01*
X70643395Y-109901688D01*
X70648345Y-109935057D01*
X70650000Y-109968750D01*
X70650000Y-110656250D01*
X70648345Y-110689943D01*
X70643395Y-110723312D01*
X70635198Y-110756035D01*
X70623834Y-110787797D01*
X70609410Y-110818293D01*
X70592068Y-110847227D01*
X70571972Y-110874323D01*
X70549318Y-110899318D01*
X70524323Y-110921972D01*
X70497227Y-110942068D01*
X70468293Y-110959410D01*
X70437797Y-110973834D01*
X70406035Y-110985198D01*
X70373312Y-110993395D01*
X70339943Y-110998345D01*
X70306250Y-111000000D01*
X69193750Y-111000000D01*
X69160057Y-110998345D01*
X69126688Y-110993395D01*
X69093965Y-110985198D01*
X69062203Y-110973834D01*
X69031707Y-110959410D01*
X69002773Y-110942068D01*
X68975677Y-110921972D01*
X68950682Y-110899318D01*
X68928028Y-110874323D01*
X68907932Y-110847227D01*
X68890590Y-110818293D01*
X68876166Y-110787797D01*
X68864802Y-110756035D01*
X68856605Y-110723312D01*
X68851655Y-110689943D01*
X68850000Y-110656250D01*
X68850000Y-109968750D01*
X68851655Y-109935057D01*
X68856605Y-109901688D01*
X68864802Y-109868965D01*
X68876166Y-109837203D01*
X68890590Y-109806707D01*
X68907932Y-109777773D01*
X68928028Y-109750677D01*
X68950682Y-109725682D01*
X68975677Y-109703028D01*
X69002773Y-109682932D01*
X69031707Y-109665590D01*
X69062203Y-109651166D01*
X69093965Y-109639802D01*
X69126688Y-109631605D01*
X69160057Y-109626655D01*
X69193750Y-109625000D01*
X70306250Y-109625000D01*
X70339943Y-109626655D01*
X70339943Y-109626655D01*
G37*
D23*
X69750000Y-110312500D03*
G04 #@! TD*
D20*
G04 #@! TO.C,R5*
G36*
X92614943Y-121801655D02*
X92648312Y-121806605D01*
X92681035Y-121814802D01*
X92712797Y-121826166D01*
X92743293Y-121840590D01*
X92772227Y-121857932D01*
X92799323Y-121878028D01*
X92824318Y-121900682D01*
X92846972Y-121925677D01*
X92867068Y-121952773D01*
X92884410Y-121981707D01*
X92898834Y-122012203D01*
X92910198Y-122043965D01*
X92918395Y-122076688D01*
X92923345Y-122110057D01*
X92925000Y-122143750D01*
X92925000Y-123256250D01*
X92923345Y-123289943D01*
X92918395Y-123323312D01*
X92910198Y-123356035D01*
X92898834Y-123387797D01*
X92884410Y-123418293D01*
X92867068Y-123447227D01*
X92846972Y-123474323D01*
X92824318Y-123499318D01*
X92799323Y-123521972D01*
X92772227Y-123542068D01*
X92743293Y-123559410D01*
X92712797Y-123573834D01*
X92681035Y-123585198D01*
X92648312Y-123593395D01*
X92614943Y-123598345D01*
X92581250Y-123600000D01*
X91893750Y-123600000D01*
X91860057Y-123598345D01*
X91826688Y-123593395D01*
X91793965Y-123585198D01*
X91762203Y-123573834D01*
X91731707Y-123559410D01*
X91702773Y-123542068D01*
X91675677Y-123521972D01*
X91650682Y-123499318D01*
X91628028Y-123474323D01*
X91607932Y-123447227D01*
X91590590Y-123418293D01*
X91576166Y-123387797D01*
X91564802Y-123356035D01*
X91556605Y-123323312D01*
X91551655Y-123289943D01*
X91550000Y-123256250D01*
X91550000Y-122143750D01*
X91551655Y-122110057D01*
X91556605Y-122076688D01*
X91564802Y-122043965D01*
X91576166Y-122012203D01*
X91590590Y-121981707D01*
X91607932Y-121952773D01*
X91628028Y-121925677D01*
X91650682Y-121900682D01*
X91675677Y-121878028D01*
X91702773Y-121857932D01*
X91731707Y-121840590D01*
X91762203Y-121826166D01*
X91793965Y-121814802D01*
X91826688Y-121806605D01*
X91860057Y-121801655D01*
X91893750Y-121800000D01*
X92581250Y-121800000D01*
X92614943Y-121801655D01*
X92614943Y-121801655D01*
G37*
D23*
X92237500Y-122700000D03*
D20*
G36*
X90739943Y-121801655D02*
X90773312Y-121806605D01*
X90806035Y-121814802D01*
X90837797Y-121826166D01*
X90868293Y-121840590D01*
X90897227Y-121857932D01*
X90924323Y-121878028D01*
X90949318Y-121900682D01*
X90971972Y-121925677D01*
X90992068Y-121952773D01*
X91009410Y-121981707D01*
X91023834Y-122012203D01*
X91035198Y-122043965D01*
X91043395Y-122076688D01*
X91048345Y-122110057D01*
X91050000Y-122143750D01*
X91050000Y-123256250D01*
X91048345Y-123289943D01*
X91043395Y-123323312D01*
X91035198Y-123356035D01*
X91023834Y-123387797D01*
X91009410Y-123418293D01*
X90992068Y-123447227D01*
X90971972Y-123474323D01*
X90949318Y-123499318D01*
X90924323Y-123521972D01*
X90897227Y-123542068D01*
X90868293Y-123559410D01*
X90837797Y-123573834D01*
X90806035Y-123585198D01*
X90773312Y-123593395D01*
X90739943Y-123598345D01*
X90706250Y-123600000D01*
X90018750Y-123600000D01*
X89985057Y-123598345D01*
X89951688Y-123593395D01*
X89918965Y-123585198D01*
X89887203Y-123573834D01*
X89856707Y-123559410D01*
X89827773Y-123542068D01*
X89800677Y-123521972D01*
X89775682Y-123499318D01*
X89753028Y-123474323D01*
X89732932Y-123447227D01*
X89715590Y-123418293D01*
X89701166Y-123387797D01*
X89689802Y-123356035D01*
X89681605Y-123323312D01*
X89676655Y-123289943D01*
X89675000Y-123256250D01*
X89675000Y-122143750D01*
X89676655Y-122110057D01*
X89681605Y-122076688D01*
X89689802Y-122043965D01*
X89701166Y-122012203D01*
X89715590Y-121981707D01*
X89732932Y-121952773D01*
X89753028Y-121925677D01*
X89775682Y-121900682D01*
X89800677Y-121878028D01*
X89827773Y-121857932D01*
X89856707Y-121840590D01*
X89887203Y-121826166D01*
X89918965Y-121814802D01*
X89951688Y-121806605D01*
X89985057Y-121801655D01*
X90018750Y-121800000D01*
X90706250Y-121800000D01*
X90739943Y-121801655D01*
X90739943Y-121801655D01*
G37*
D23*
X90362500Y-122700000D03*
G04 #@! TD*
D20*
G04 #@! TO.C,R10*
G36*
X92714943Y-117351655D02*
X92748312Y-117356605D01*
X92781035Y-117364802D01*
X92812797Y-117376166D01*
X92843293Y-117390590D01*
X92872227Y-117407932D01*
X92899323Y-117428028D01*
X92924318Y-117450682D01*
X92946972Y-117475677D01*
X92967068Y-117502773D01*
X92984410Y-117531707D01*
X92998834Y-117562203D01*
X93010198Y-117593965D01*
X93018395Y-117626688D01*
X93023345Y-117660057D01*
X93025000Y-117693750D01*
X93025000Y-118806250D01*
X93023345Y-118839943D01*
X93018395Y-118873312D01*
X93010198Y-118906035D01*
X92998834Y-118937797D01*
X92984410Y-118968293D01*
X92967068Y-118997227D01*
X92946972Y-119024323D01*
X92924318Y-119049318D01*
X92899323Y-119071972D01*
X92872227Y-119092068D01*
X92843293Y-119109410D01*
X92812797Y-119123834D01*
X92781035Y-119135198D01*
X92748312Y-119143395D01*
X92714943Y-119148345D01*
X92681250Y-119150000D01*
X91993750Y-119150000D01*
X91960057Y-119148345D01*
X91926688Y-119143395D01*
X91893965Y-119135198D01*
X91862203Y-119123834D01*
X91831707Y-119109410D01*
X91802773Y-119092068D01*
X91775677Y-119071972D01*
X91750682Y-119049318D01*
X91728028Y-119024323D01*
X91707932Y-118997227D01*
X91690590Y-118968293D01*
X91676166Y-118937797D01*
X91664802Y-118906035D01*
X91656605Y-118873312D01*
X91651655Y-118839943D01*
X91650000Y-118806250D01*
X91650000Y-117693750D01*
X91651655Y-117660057D01*
X91656605Y-117626688D01*
X91664802Y-117593965D01*
X91676166Y-117562203D01*
X91690590Y-117531707D01*
X91707932Y-117502773D01*
X91728028Y-117475677D01*
X91750682Y-117450682D01*
X91775677Y-117428028D01*
X91802773Y-117407932D01*
X91831707Y-117390590D01*
X91862203Y-117376166D01*
X91893965Y-117364802D01*
X91926688Y-117356605D01*
X91960057Y-117351655D01*
X91993750Y-117350000D01*
X92681250Y-117350000D01*
X92714943Y-117351655D01*
X92714943Y-117351655D01*
G37*
D23*
X92337500Y-118250000D03*
D20*
G36*
X90839943Y-117351655D02*
X90873312Y-117356605D01*
X90906035Y-117364802D01*
X90937797Y-117376166D01*
X90968293Y-117390590D01*
X90997227Y-117407932D01*
X91024323Y-117428028D01*
X91049318Y-117450682D01*
X91071972Y-117475677D01*
X91092068Y-117502773D01*
X91109410Y-117531707D01*
X91123834Y-117562203D01*
X91135198Y-117593965D01*
X91143395Y-117626688D01*
X91148345Y-117660057D01*
X91150000Y-117693750D01*
X91150000Y-118806250D01*
X91148345Y-118839943D01*
X91143395Y-118873312D01*
X91135198Y-118906035D01*
X91123834Y-118937797D01*
X91109410Y-118968293D01*
X91092068Y-118997227D01*
X91071972Y-119024323D01*
X91049318Y-119049318D01*
X91024323Y-119071972D01*
X90997227Y-119092068D01*
X90968293Y-119109410D01*
X90937797Y-119123834D01*
X90906035Y-119135198D01*
X90873312Y-119143395D01*
X90839943Y-119148345D01*
X90806250Y-119150000D01*
X90118750Y-119150000D01*
X90085057Y-119148345D01*
X90051688Y-119143395D01*
X90018965Y-119135198D01*
X89987203Y-119123834D01*
X89956707Y-119109410D01*
X89927773Y-119092068D01*
X89900677Y-119071972D01*
X89875682Y-119049318D01*
X89853028Y-119024323D01*
X89832932Y-118997227D01*
X89815590Y-118968293D01*
X89801166Y-118937797D01*
X89789802Y-118906035D01*
X89781605Y-118873312D01*
X89776655Y-118839943D01*
X89775000Y-118806250D01*
X89775000Y-117693750D01*
X89776655Y-117660057D01*
X89781605Y-117626688D01*
X89789802Y-117593965D01*
X89801166Y-117562203D01*
X89815590Y-117531707D01*
X89832932Y-117502773D01*
X89853028Y-117475677D01*
X89875682Y-117450682D01*
X89900677Y-117428028D01*
X89927773Y-117407932D01*
X89956707Y-117390590D01*
X89987203Y-117376166D01*
X90018965Y-117364802D01*
X90051688Y-117356605D01*
X90085057Y-117351655D01*
X90118750Y-117350000D01*
X90806250Y-117350000D01*
X90839943Y-117351655D01*
X90839943Y-117351655D01*
G37*
D23*
X90462500Y-118250000D03*
G04 #@! TD*
D20*
G04 #@! TO.C,R15*
G36*
X90889943Y-130701655D02*
X90923312Y-130706605D01*
X90956035Y-130714802D01*
X90987797Y-130726166D01*
X91018293Y-130740590D01*
X91047227Y-130757932D01*
X91074323Y-130778028D01*
X91099318Y-130800682D01*
X91121972Y-130825677D01*
X91142068Y-130852773D01*
X91159410Y-130881707D01*
X91173834Y-130912203D01*
X91185198Y-130943965D01*
X91193395Y-130976688D01*
X91198345Y-131010057D01*
X91200000Y-131043750D01*
X91200000Y-132156250D01*
X91198345Y-132189943D01*
X91193395Y-132223312D01*
X91185198Y-132256035D01*
X91173834Y-132287797D01*
X91159410Y-132318293D01*
X91142068Y-132347227D01*
X91121972Y-132374323D01*
X91099318Y-132399318D01*
X91074323Y-132421972D01*
X91047227Y-132442068D01*
X91018293Y-132459410D01*
X90987797Y-132473834D01*
X90956035Y-132485198D01*
X90923312Y-132493395D01*
X90889943Y-132498345D01*
X90856250Y-132500000D01*
X90168750Y-132500000D01*
X90135057Y-132498345D01*
X90101688Y-132493395D01*
X90068965Y-132485198D01*
X90037203Y-132473834D01*
X90006707Y-132459410D01*
X89977773Y-132442068D01*
X89950677Y-132421972D01*
X89925682Y-132399318D01*
X89903028Y-132374323D01*
X89882932Y-132347227D01*
X89865590Y-132318293D01*
X89851166Y-132287797D01*
X89839802Y-132256035D01*
X89831605Y-132223312D01*
X89826655Y-132189943D01*
X89825000Y-132156250D01*
X89825000Y-131043750D01*
X89826655Y-131010057D01*
X89831605Y-130976688D01*
X89839802Y-130943965D01*
X89851166Y-130912203D01*
X89865590Y-130881707D01*
X89882932Y-130852773D01*
X89903028Y-130825677D01*
X89925682Y-130800682D01*
X89950677Y-130778028D01*
X89977773Y-130757932D01*
X90006707Y-130740590D01*
X90037203Y-130726166D01*
X90068965Y-130714802D01*
X90101688Y-130706605D01*
X90135057Y-130701655D01*
X90168750Y-130700000D01*
X90856250Y-130700000D01*
X90889943Y-130701655D01*
X90889943Y-130701655D01*
G37*
D23*
X90512500Y-131600000D03*
D20*
G36*
X92764943Y-130701655D02*
X92798312Y-130706605D01*
X92831035Y-130714802D01*
X92862797Y-130726166D01*
X92893293Y-130740590D01*
X92922227Y-130757932D01*
X92949323Y-130778028D01*
X92974318Y-130800682D01*
X92996972Y-130825677D01*
X93017068Y-130852773D01*
X93034410Y-130881707D01*
X93048834Y-130912203D01*
X93060198Y-130943965D01*
X93068395Y-130976688D01*
X93073345Y-131010057D01*
X93075000Y-131043750D01*
X93075000Y-132156250D01*
X93073345Y-132189943D01*
X93068395Y-132223312D01*
X93060198Y-132256035D01*
X93048834Y-132287797D01*
X93034410Y-132318293D01*
X93017068Y-132347227D01*
X92996972Y-132374323D01*
X92974318Y-132399318D01*
X92949323Y-132421972D01*
X92922227Y-132442068D01*
X92893293Y-132459410D01*
X92862797Y-132473834D01*
X92831035Y-132485198D01*
X92798312Y-132493395D01*
X92764943Y-132498345D01*
X92731250Y-132500000D01*
X92043750Y-132500000D01*
X92010057Y-132498345D01*
X91976688Y-132493395D01*
X91943965Y-132485198D01*
X91912203Y-132473834D01*
X91881707Y-132459410D01*
X91852773Y-132442068D01*
X91825677Y-132421972D01*
X91800682Y-132399318D01*
X91778028Y-132374323D01*
X91757932Y-132347227D01*
X91740590Y-132318293D01*
X91726166Y-132287797D01*
X91714802Y-132256035D01*
X91706605Y-132223312D01*
X91701655Y-132189943D01*
X91700000Y-132156250D01*
X91700000Y-131043750D01*
X91701655Y-131010057D01*
X91706605Y-130976688D01*
X91714802Y-130943965D01*
X91726166Y-130912203D01*
X91740590Y-130881707D01*
X91757932Y-130852773D01*
X91778028Y-130825677D01*
X91800682Y-130800682D01*
X91825677Y-130778028D01*
X91852773Y-130757932D01*
X91881707Y-130740590D01*
X91912203Y-130726166D01*
X91943965Y-130714802D01*
X91976688Y-130706605D01*
X92010057Y-130701655D01*
X92043750Y-130700000D01*
X92731250Y-130700000D01*
X92764943Y-130701655D01*
X92764943Y-130701655D01*
G37*
D23*
X92387500Y-131600000D03*
G04 #@! TD*
D20*
G04 #@! TO.C,R16*
G36*
X82289943Y-127351655D02*
X82323312Y-127356605D01*
X82356035Y-127364802D01*
X82387797Y-127376166D01*
X82418293Y-127390590D01*
X82447227Y-127407932D01*
X82474323Y-127428028D01*
X82499318Y-127450682D01*
X82521972Y-127475677D01*
X82542068Y-127502773D01*
X82559410Y-127531707D01*
X82573834Y-127562203D01*
X82585198Y-127593965D01*
X82593395Y-127626688D01*
X82598345Y-127660057D01*
X82600000Y-127693750D01*
X82600000Y-128381250D01*
X82598345Y-128414943D01*
X82593395Y-128448312D01*
X82585198Y-128481035D01*
X82573834Y-128512797D01*
X82559410Y-128543293D01*
X82542068Y-128572227D01*
X82521972Y-128599323D01*
X82499318Y-128624318D01*
X82474323Y-128646972D01*
X82447227Y-128667068D01*
X82418293Y-128684410D01*
X82387797Y-128698834D01*
X82356035Y-128710198D01*
X82323312Y-128718395D01*
X82289943Y-128723345D01*
X82256250Y-128725000D01*
X81143750Y-128725000D01*
X81110057Y-128723345D01*
X81076688Y-128718395D01*
X81043965Y-128710198D01*
X81012203Y-128698834D01*
X80981707Y-128684410D01*
X80952773Y-128667068D01*
X80925677Y-128646972D01*
X80900682Y-128624318D01*
X80878028Y-128599323D01*
X80857932Y-128572227D01*
X80840590Y-128543293D01*
X80826166Y-128512797D01*
X80814802Y-128481035D01*
X80806605Y-128448312D01*
X80801655Y-128414943D01*
X80800000Y-128381250D01*
X80800000Y-127693750D01*
X80801655Y-127660057D01*
X80806605Y-127626688D01*
X80814802Y-127593965D01*
X80826166Y-127562203D01*
X80840590Y-127531707D01*
X80857932Y-127502773D01*
X80878028Y-127475677D01*
X80900682Y-127450682D01*
X80925677Y-127428028D01*
X80952773Y-127407932D01*
X80981707Y-127390590D01*
X81012203Y-127376166D01*
X81043965Y-127364802D01*
X81076688Y-127356605D01*
X81110057Y-127351655D01*
X81143750Y-127350000D01*
X82256250Y-127350000D01*
X82289943Y-127351655D01*
X82289943Y-127351655D01*
G37*
D23*
X81700000Y-128037500D03*
D20*
G36*
X82289943Y-125476655D02*
X82323312Y-125481605D01*
X82356035Y-125489802D01*
X82387797Y-125501166D01*
X82418293Y-125515590D01*
X82447227Y-125532932D01*
X82474323Y-125553028D01*
X82499318Y-125575682D01*
X82521972Y-125600677D01*
X82542068Y-125627773D01*
X82559410Y-125656707D01*
X82573834Y-125687203D01*
X82585198Y-125718965D01*
X82593395Y-125751688D01*
X82598345Y-125785057D01*
X82600000Y-125818750D01*
X82600000Y-126506250D01*
X82598345Y-126539943D01*
X82593395Y-126573312D01*
X82585198Y-126606035D01*
X82573834Y-126637797D01*
X82559410Y-126668293D01*
X82542068Y-126697227D01*
X82521972Y-126724323D01*
X82499318Y-126749318D01*
X82474323Y-126771972D01*
X82447227Y-126792068D01*
X82418293Y-126809410D01*
X82387797Y-126823834D01*
X82356035Y-126835198D01*
X82323312Y-126843395D01*
X82289943Y-126848345D01*
X82256250Y-126850000D01*
X81143750Y-126850000D01*
X81110057Y-126848345D01*
X81076688Y-126843395D01*
X81043965Y-126835198D01*
X81012203Y-126823834D01*
X80981707Y-126809410D01*
X80952773Y-126792068D01*
X80925677Y-126771972D01*
X80900682Y-126749318D01*
X80878028Y-126724323D01*
X80857932Y-126697227D01*
X80840590Y-126668293D01*
X80826166Y-126637797D01*
X80814802Y-126606035D01*
X80806605Y-126573312D01*
X80801655Y-126539943D01*
X80800000Y-126506250D01*
X80800000Y-125818750D01*
X80801655Y-125785057D01*
X80806605Y-125751688D01*
X80814802Y-125718965D01*
X80826166Y-125687203D01*
X80840590Y-125656707D01*
X80857932Y-125627773D01*
X80878028Y-125600677D01*
X80900682Y-125575682D01*
X80925677Y-125553028D01*
X80952773Y-125532932D01*
X80981707Y-125515590D01*
X81012203Y-125501166D01*
X81043965Y-125489802D01*
X81076688Y-125481605D01*
X81110057Y-125476655D01*
X81143750Y-125475000D01*
X82256250Y-125475000D01*
X82289943Y-125476655D01*
X82289943Y-125476655D01*
G37*
D23*
X81700000Y-126162500D03*
G04 #@! TD*
D20*
G04 #@! TO.C,R17*
G36*
X97764943Y-152001655D02*
X97798312Y-152006605D01*
X97831035Y-152014802D01*
X97862797Y-152026166D01*
X97893293Y-152040590D01*
X97922227Y-152057932D01*
X97949323Y-152078028D01*
X97974318Y-152100682D01*
X97996972Y-152125677D01*
X98017068Y-152152773D01*
X98034410Y-152181707D01*
X98048834Y-152212203D01*
X98060198Y-152243965D01*
X98068395Y-152276688D01*
X98073345Y-152310057D01*
X98075000Y-152343750D01*
X98075000Y-153456250D01*
X98073345Y-153489943D01*
X98068395Y-153523312D01*
X98060198Y-153556035D01*
X98048834Y-153587797D01*
X98034410Y-153618293D01*
X98017068Y-153647227D01*
X97996972Y-153674323D01*
X97974318Y-153699318D01*
X97949323Y-153721972D01*
X97922227Y-153742068D01*
X97893293Y-153759410D01*
X97862797Y-153773834D01*
X97831035Y-153785198D01*
X97798312Y-153793395D01*
X97764943Y-153798345D01*
X97731250Y-153800000D01*
X97043750Y-153800000D01*
X97010057Y-153798345D01*
X96976688Y-153793395D01*
X96943965Y-153785198D01*
X96912203Y-153773834D01*
X96881707Y-153759410D01*
X96852773Y-153742068D01*
X96825677Y-153721972D01*
X96800682Y-153699318D01*
X96778028Y-153674323D01*
X96757932Y-153647227D01*
X96740590Y-153618293D01*
X96726166Y-153587797D01*
X96714802Y-153556035D01*
X96706605Y-153523312D01*
X96701655Y-153489943D01*
X96700000Y-153456250D01*
X96700000Y-152343750D01*
X96701655Y-152310057D01*
X96706605Y-152276688D01*
X96714802Y-152243965D01*
X96726166Y-152212203D01*
X96740590Y-152181707D01*
X96757932Y-152152773D01*
X96778028Y-152125677D01*
X96800682Y-152100682D01*
X96825677Y-152078028D01*
X96852773Y-152057932D01*
X96881707Y-152040590D01*
X96912203Y-152026166D01*
X96943965Y-152014802D01*
X96976688Y-152006605D01*
X97010057Y-152001655D01*
X97043750Y-152000000D01*
X97731250Y-152000000D01*
X97764943Y-152001655D01*
X97764943Y-152001655D01*
G37*
D23*
X97387500Y-152900000D03*
D20*
G36*
X95889943Y-152001655D02*
X95923312Y-152006605D01*
X95956035Y-152014802D01*
X95987797Y-152026166D01*
X96018293Y-152040590D01*
X96047227Y-152057932D01*
X96074323Y-152078028D01*
X96099318Y-152100682D01*
X96121972Y-152125677D01*
X96142068Y-152152773D01*
X96159410Y-152181707D01*
X96173834Y-152212203D01*
X96185198Y-152243965D01*
X96193395Y-152276688D01*
X96198345Y-152310057D01*
X96200000Y-152343750D01*
X96200000Y-153456250D01*
X96198345Y-153489943D01*
X96193395Y-153523312D01*
X96185198Y-153556035D01*
X96173834Y-153587797D01*
X96159410Y-153618293D01*
X96142068Y-153647227D01*
X96121972Y-153674323D01*
X96099318Y-153699318D01*
X96074323Y-153721972D01*
X96047227Y-153742068D01*
X96018293Y-153759410D01*
X95987797Y-153773834D01*
X95956035Y-153785198D01*
X95923312Y-153793395D01*
X95889943Y-153798345D01*
X95856250Y-153800000D01*
X95168750Y-153800000D01*
X95135057Y-153798345D01*
X95101688Y-153793395D01*
X95068965Y-153785198D01*
X95037203Y-153773834D01*
X95006707Y-153759410D01*
X94977773Y-153742068D01*
X94950677Y-153721972D01*
X94925682Y-153699318D01*
X94903028Y-153674323D01*
X94882932Y-153647227D01*
X94865590Y-153618293D01*
X94851166Y-153587797D01*
X94839802Y-153556035D01*
X94831605Y-153523312D01*
X94826655Y-153489943D01*
X94825000Y-153456250D01*
X94825000Y-152343750D01*
X94826655Y-152310057D01*
X94831605Y-152276688D01*
X94839802Y-152243965D01*
X94851166Y-152212203D01*
X94865590Y-152181707D01*
X94882932Y-152152773D01*
X94903028Y-152125677D01*
X94925682Y-152100682D01*
X94950677Y-152078028D01*
X94977773Y-152057932D01*
X95006707Y-152040590D01*
X95037203Y-152026166D01*
X95068965Y-152014802D01*
X95101688Y-152006605D01*
X95135057Y-152001655D01*
X95168750Y-152000000D01*
X95856250Y-152000000D01*
X95889943Y-152001655D01*
X95889943Y-152001655D01*
G37*
D23*
X95512500Y-152900000D03*
G04 #@! TD*
D20*
G04 #@! TO.C,R18*
G36*
X97714943Y-146701655D02*
X97748312Y-146706605D01*
X97781035Y-146714802D01*
X97812797Y-146726166D01*
X97843293Y-146740590D01*
X97872227Y-146757932D01*
X97899323Y-146778028D01*
X97924318Y-146800682D01*
X97946972Y-146825677D01*
X97967068Y-146852773D01*
X97984410Y-146881707D01*
X97998834Y-146912203D01*
X98010198Y-146943965D01*
X98018395Y-146976688D01*
X98023345Y-147010057D01*
X98025000Y-147043750D01*
X98025000Y-148156250D01*
X98023345Y-148189943D01*
X98018395Y-148223312D01*
X98010198Y-148256035D01*
X97998834Y-148287797D01*
X97984410Y-148318293D01*
X97967068Y-148347227D01*
X97946972Y-148374323D01*
X97924318Y-148399318D01*
X97899323Y-148421972D01*
X97872227Y-148442068D01*
X97843293Y-148459410D01*
X97812797Y-148473834D01*
X97781035Y-148485198D01*
X97748312Y-148493395D01*
X97714943Y-148498345D01*
X97681250Y-148500000D01*
X96993750Y-148500000D01*
X96960057Y-148498345D01*
X96926688Y-148493395D01*
X96893965Y-148485198D01*
X96862203Y-148473834D01*
X96831707Y-148459410D01*
X96802773Y-148442068D01*
X96775677Y-148421972D01*
X96750682Y-148399318D01*
X96728028Y-148374323D01*
X96707932Y-148347227D01*
X96690590Y-148318293D01*
X96676166Y-148287797D01*
X96664802Y-148256035D01*
X96656605Y-148223312D01*
X96651655Y-148189943D01*
X96650000Y-148156250D01*
X96650000Y-147043750D01*
X96651655Y-147010057D01*
X96656605Y-146976688D01*
X96664802Y-146943965D01*
X96676166Y-146912203D01*
X96690590Y-146881707D01*
X96707932Y-146852773D01*
X96728028Y-146825677D01*
X96750682Y-146800682D01*
X96775677Y-146778028D01*
X96802773Y-146757932D01*
X96831707Y-146740590D01*
X96862203Y-146726166D01*
X96893965Y-146714802D01*
X96926688Y-146706605D01*
X96960057Y-146701655D01*
X96993750Y-146700000D01*
X97681250Y-146700000D01*
X97714943Y-146701655D01*
X97714943Y-146701655D01*
G37*
D23*
X97337500Y-147600000D03*
D20*
G36*
X95839943Y-146701655D02*
X95873312Y-146706605D01*
X95906035Y-146714802D01*
X95937797Y-146726166D01*
X95968293Y-146740590D01*
X95997227Y-146757932D01*
X96024323Y-146778028D01*
X96049318Y-146800682D01*
X96071972Y-146825677D01*
X96092068Y-146852773D01*
X96109410Y-146881707D01*
X96123834Y-146912203D01*
X96135198Y-146943965D01*
X96143395Y-146976688D01*
X96148345Y-147010057D01*
X96150000Y-147043750D01*
X96150000Y-148156250D01*
X96148345Y-148189943D01*
X96143395Y-148223312D01*
X96135198Y-148256035D01*
X96123834Y-148287797D01*
X96109410Y-148318293D01*
X96092068Y-148347227D01*
X96071972Y-148374323D01*
X96049318Y-148399318D01*
X96024323Y-148421972D01*
X95997227Y-148442068D01*
X95968293Y-148459410D01*
X95937797Y-148473834D01*
X95906035Y-148485198D01*
X95873312Y-148493395D01*
X95839943Y-148498345D01*
X95806250Y-148500000D01*
X95118750Y-148500000D01*
X95085057Y-148498345D01*
X95051688Y-148493395D01*
X95018965Y-148485198D01*
X94987203Y-148473834D01*
X94956707Y-148459410D01*
X94927773Y-148442068D01*
X94900677Y-148421972D01*
X94875682Y-148399318D01*
X94853028Y-148374323D01*
X94832932Y-148347227D01*
X94815590Y-148318293D01*
X94801166Y-148287797D01*
X94789802Y-148256035D01*
X94781605Y-148223312D01*
X94776655Y-148189943D01*
X94775000Y-148156250D01*
X94775000Y-147043750D01*
X94776655Y-147010057D01*
X94781605Y-146976688D01*
X94789802Y-146943965D01*
X94801166Y-146912203D01*
X94815590Y-146881707D01*
X94832932Y-146852773D01*
X94853028Y-146825677D01*
X94875682Y-146800682D01*
X94900677Y-146778028D01*
X94927773Y-146757932D01*
X94956707Y-146740590D01*
X94987203Y-146726166D01*
X95018965Y-146714802D01*
X95051688Y-146706605D01*
X95085057Y-146701655D01*
X95118750Y-146700000D01*
X95806250Y-146700000D01*
X95839943Y-146701655D01*
X95839943Y-146701655D01*
G37*
D23*
X95462500Y-147600000D03*
G04 #@! TD*
D20*
G04 #@! TO.C,R19*
G36*
X106814943Y-91801655D02*
X106848312Y-91806605D01*
X106881035Y-91814802D01*
X106912797Y-91826166D01*
X106943293Y-91840590D01*
X106972227Y-91857932D01*
X106999323Y-91878028D01*
X107024318Y-91900682D01*
X107046972Y-91925677D01*
X107067068Y-91952773D01*
X107084410Y-91981707D01*
X107098834Y-92012203D01*
X107110198Y-92043965D01*
X107118395Y-92076688D01*
X107123345Y-92110057D01*
X107125000Y-92143750D01*
X107125000Y-93256250D01*
X107123345Y-93289943D01*
X107118395Y-93323312D01*
X107110198Y-93356035D01*
X107098834Y-93387797D01*
X107084410Y-93418293D01*
X107067068Y-93447227D01*
X107046972Y-93474323D01*
X107024318Y-93499318D01*
X106999323Y-93521972D01*
X106972227Y-93542068D01*
X106943293Y-93559410D01*
X106912797Y-93573834D01*
X106881035Y-93585198D01*
X106848312Y-93593395D01*
X106814943Y-93598345D01*
X106781250Y-93600000D01*
X106093750Y-93600000D01*
X106060057Y-93598345D01*
X106026688Y-93593395D01*
X105993965Y-93585198D01*
X105962203Y-93573834D01*
X105931707Y-93559410D01*
X105902773Y-93542068D01*
X105875677Y-93521972D01*
X105850682Y-93499318D01*
X105828028Y-93474323D01*
X105807932Y-93447227D01*
X105790590Y-93418293D01*
X105776166Y-93387797D01*
X105764802Y-93356035D01*
X105756605Y-93323312D01*
X105751655Y-93289943D01*
X105750000Y-93256250D01*
X105750000Y-92143750D01*
X105751655Y-92110057D01*
X105756605Y-92076688D01*
X105764802Y-92043965D01*
X105776166Y-92012203D01*
X105790590Y-91981707D01*
X105807932Y-91952773D01*
X105828028Y-91925677D01*
X105850682Y-91900682D01*
X105875677Y-91878028D01*
X105902773Y-91857932D01*
X105931707Y-91840590D01*
X105962203Y-91826166D01*
X105993965Y-91814802D01*
X106026688Y-91806605D01*
X106060057Y-91801655D01*
X106093750Y-91800000D01*
X106781250Y-91800000D01*
X106814943Y-91801655D01*
X106814943Y-91801655D01*
G37*
D23*
X106437500Y-92700000D03*
D20*
G36*
X104939943Y-91801655D02*
X104973312Y-91806605D01*
X105006035Y-91814802D01*
X105037797Y-91826166D01*
X105068293Y-91840590D01*
X105097227Y-91857932D01*
X105124323Y-91878028D01*
X105149318Y-91900682D01*
X105171972Y-91925677D01*
X105192068Y-91952773D01*
X105209410Y-91981707D01*
X105223834Y-92012203D01*
X105235198Y-92043965D01*
X105243395Y-92076688D01*
X105248345Y-92110057D01*
X105250000Y-92143750D01*
X105250000Y-93256250D01*
X105248345Y-93289943D01*
X105243395Y-93323312D01*
X105235198Y-93356035D01*
X105223834Y-93387797D01*
X105209410Y-93418293D01*
X105192068Y-93447227D01*
X105171972Y-93474323D01*
X105149318Y-93499318D01*
X105124323Y-93521972D01*
X105097227Y-93542068D01*
X105068293Y-93559410D01*
X105037797Y-93573834D01*
X105006035Y-93585198D01*
X104973312Y-93593395D01*
X104939943Y-93598345D01*
X104906250Y-93600000D01*
X104218750Y-93600000D01*
X104185057Y-93598345D01*
X104151688Y-93593395D01*
X104118965Y-93585198D01*
X104087203Y-93573834D01*
X104056707Y-93559410D01*
X104027773Y-93542068D01*
X104000677Y-93521972D01*
X103975682Y-93499318D01*
X103953028Y-93474323D01*
X103932932Y-93447227D01*
X103915590Y-93418293D01*
X103901166Y-93387797D01*
X103889802Y-93356035D01*
X103881605Y-93323312D01*
X103876655Y-93289943D01*
X103875000Y-93256250D01*
X103875000Y-92143750D01*
X103876655Y-92110057D01*
X103881605Y-92076688D01*
X103889802Y-92043965D01*
X103901166Y-92012203D01*
X103915590Y-91981707D01*
X103932932Y-91952773D01*
X103953028Y-91925677D01*
X103975682Y-91900682D01*
X104000677Y-91878028D01*
X104027773Y-91857932D01*
X104056707Y-91840590D01*
X104087203Y-91826166D01*
X104118965Y-91814802D01*
X104151688Y-91806605D01*
X104185057Y-91801655D01*
X104218750Y-91800000D01*
X104906250Y-91800000D01*
X104939943Y-91801655D01*
X104939943Y-91801655D01*
G37*
D23*
X104562500Y-92700000D03*
G04 #@! TD*
D20*
G04 #@! TO.C,R20*
G36*
X110614943Y-76101655D02*
X110648312Y-76106605D01*
X110681035Y-76114802D01*
X110712797Y-76126166D01*
X110743293Y-76140590D01*
X110772227Y-76157932D01*
X110799323Y-76178028D01*
X110824318Y-76200682D01*
X110846972Y-76225677D01*
X110867068Y-76252773D01*
X110884410Y-76281707D01*
X110898834Y-76312203D01*
X110910198Y-76343965D01*
X110918395Y-76376688D01*
X110923345Y-76410057D01*
X110925000Y-76443750D01*
X110925000Y-77556250D01*
X110923345Y-77589943D01*
X110918395Y-77623312D01*
X110910198Y-77656035D01*
X110898834Y-77687797D01*
X110884410Y-77718293D01*
X110867068Y-77747227D01*
X110846972Y-77774323D01*
X110824318Y-77799318D01*
X110799323Y-77821972D01*
X110772227Y-77842068D01*
X110743293Y-77859410D01*
X110712797Y-77873834D01*
X110681035Y-77885198D01*
X110648312Y-77893395D01*
X110614943Y-77898345D01*
X110581250Y-77900000D01*
X109893750Y-77900000D01*
X109860057Y-77898345D01*
X109826688Y-77893395D01*
X109793965Y-77885198D01*
X109762203Y-77873834D01*
X109731707Y-77859410D01*
X109702773Y-77842068D01*
X109675677Y-77821972D01*
X109650682Y-77799318D01*
X109628028Y-77774323D01*
X109607932Y-77747227D01*
X109590590Y-77718293D01*
X109576166Y-77687797D01*
X109564802Y-77656035D01*
X109556605Y-77623312D01*
X109551655Y-77589943D01*
X109550000Y-77556250D01*
X109550000Y-76443750D01*
X109551655Y-76410057D01*
X109556605Y-76376688D01*
X109564802Y-76343965D01*
X109576166Y-76312203D01*
X109590590Y-76281707D01*
X109607932Y-76252773D01*
X109628028Y-76225677D01*
X109650682Y-76200682D01*
X109675677Y-76178028D01*
X109702773Y-76157932D01*
X109731707Y-76140590D01*
X109762203Y-76126166D01*
X109793965Y-76114802D01*
X109826688Y-76106605D01*
X109860057Y-76101655D01*
X109893750Y-76100000D01*
X110581250Y-76100000D01*
X110614943Y-76101655D01*
X110614943Y-76101655D01*
G37*
D23*
X110237500Y-77000000D03*
D20*
G36*
X108739943Y-76101655D02*
X108773312Y-76106605D01*
X108806035Y-76114802D01*
X108837797Y-76126166D01*
X108868293Y-76140590D01*
X108897227Y-76157932D01*
X108924323Y-76178028D01*
X108949318Y-76200682D01*
X108971972Y-76225677D01*
X108992068Y-76252773D01*
X109009410Y-76281707D01*
X109023834Y-76312203D01*
X109035198Y-76343965D01*
X109043395Y-76376688D01*
X109048345Y-76410057D01*
X109050000Y-76443750D01*
X109050000Y-77556250D01*
X109048345Y-77589943D01*
X109043395Y-77623312D01*
X109035198Y-77656035D01*
X109023834Y-77687797D01*
X109009410Y-77718293D01*
X108992068Y-77747227D01*
X108971972Y-77774323D01*
X108949318Y-77799318D01*
X108924323Y-77821972D01*
X108897227Y-77842068D01*
X108868293Y-77859410D01*
X108837797Y-77873834D01*
X108806035Y-77885198D01*
X108773312Y-77893395D01*
X108739943Y-77898345D01*
X108706250Y-77900000D01*
X108018750Y-77900000D01*
X107985057Y-77898345D01*
X107951688Y-77893395D01*
X107918965Y-77885198D01*
X107887203Y-77873834D01*
X107856707Y-77859410D01*
X107827773Y-77842068D01*
X107800677Y-77821972D01*
X107775682Y-77799318D01*
X107753028Y-77774323D01*
X107732932Y-77747227D01*
X107715590Y-77718293D01*
X107701166Y-77687797D01*
X107689802Y-77656035D01*
X107681605Y-77623312D01*
X107676655Y-77589943D01*
X107675000Y-77556250D01*
X107675000Y-76443750D01*
X107676655Y-76410057D01*
X107681605Y-76376688D01*
X107689802Y-76343965D01*
X107701166Y-76312203D01*
X107715590Y-76281707D01*
X107732932Y-76252773D01*
X107753028Y-76225677D01*
X107775682Y-76200682D01*
X107800677Y-76178028D01*
X107827773Y-76157932D01*
X107856707Y-76140590D01*
X107887203Y-76126166D01*
X107918965Y-76114802D01*
X107951688Y-76106605D01*
X107985057Y-76101655D01*
X108018750Y-76100000D01*
X108706250Y-76100000D01*
X108739943Y-76101655D01*
X108739943Y-76101655D01*
G37*
D23*
X108362500Y-77000000D03*
G04 #@! TD*
D20*
G04 #@! TO.C,R21*
G36*
X104939943Y-79101655D02*
X104973312Y-79106605D01*
X105006035Y-79114802D01*
X105037797Y-79126166D01*
X105068293Y-79140590D01*
X105097227Y-79157932D01*
X105124323Y-79178028D01*
X105149318Y-79200682D01*
X105171972Y-79225677D01*
X105192068Y-79252773D01*
X105209410Y-79281707D01*
X105223834Y-79312203D01*
X105235198Y-79343965D01*
X105243395Y-79376688D01*
X105248345Y-79410057D01*
X105250000Y-79443750D01*
X105250000Y-80556250D01*
X105248345Y-80589943D01*
X105243395Y-80623312D01*
X105235198Y-80656035D01*
X105223834Y-80687797D01*
X105209410Y-80718293D01*
X105192068Y-80747227D01*
X105171972Y-80774323D01*
X105149318Y-80799318D01*
X105124323Y-80821972D01*
X105097227Y-80842068D01*
X105068293Y-80859410D01*
X105037797Y-80873834D01*
X105006035Y-80885198D01*
X104973312Y-80893395D01*
X104939943Y-80898345D01*
X104906250Y-80900000D01*
X104218750Y-80900000D01*
X104185057Y-80898345D01*
X104151688Y-80893395D01*
X104118965Y-80885198D01*
X104087203Y-80873834D01*
X104056707Y-80859410D01*
X104027773Y-80842068D01*
X104000677Y-80821972D01*
X103975682Y-80799318D01*
X103953028Y-80774323D01*
X103932932Y-80747227D01*
X103915590Y-80718293D01*
X103901166Y-80687797D01*
X103889802Y-80656035D01*
X103881605Y-80623312D01*
X103876655Y-80589943D01*
X103875000Y-80556250D01*
X103875000Y-79443750D01*
X103876655Y-79410057D01*
X103881605Y-79376688D01*
X103889802Y-79343965D01*
X103901166Y-79312203D01*
X103915590Y-79281707D01*
X103932932Y-79252773D01*
X103953028Y-79225677D01*
X103975682Y-79200682D01*
X104000677Y-79178028D01*
X104027773Y-79157932D01*
X104056707Y-79140590D01*
X104087203Y-79126166D01*
X104118965Y-79114802D01*
X104151688Y-79106605D01*
X104185057Y-79101655D01*
X104218750Y-79100000D01*
X104906250Y-79100000D01*
X104939943Y-79101655D01*
X104939943Y-79101655D01*
G37*
D23*
X104562500Y-80000000D03*
D20*
G36*
X106814943Y-79101655D02*
X106848312Y-79106605D01*
X106881035Y-79114802D01*
X106912797Y-79126166D01*
X106943293Y-79140590D01*
X106972227Y-79157932D01*
X106999323Y-79178028D01*
X107024318Y-79200682D01*
X107046972Y-79225677D01*
X107067068Y-79252773D01*
X107084410Y-79281707D01*
X107098834Y-79312203D01*
X107110198Y-79343965D01*
X107118395Y-79376688D01*
X107123345Y-79410057D01*
X107125000Y-79443750D01*
X107125000Y-80556250D01*
X107123345Y-80589943D01*
X107118395Y-80623312D01*
X107110198Y-80656035D01*
X107098834Y-80687797D01*
X107084410Y-80718293D01*
X107067068Y-80747227D01*
X107046972Y-80774323D01*
X107024318Y-80799318D01*
X106999323Y-80821972D01*
X106972227Y-80842068D01*
X106943293Y-80859410D01*
X106912797Y-80873834D01*
X106881035Y-80885198D01*
X106848312Y-80893395D01*
X106814943Y-80898345D01*
X106781250Y-80900000D01*
X106093750Y-80900000D01*
X106060057Y-80898345D01*
X106026688Y-80893395D01*
X105993965Y-80885198D01*
X105962203Y-80873834D01*
X105931707Y-80859410D01*
X105902773Y-80842068D01*
X105875677Y-80821972D01*
X105850682Y-80799318D01*
X105828028Y-80774323D01*
X105807932Y-80747227D01*
X105790590Y-80718293D01*
X105776166Y-80687797D01*
X105764802Y-80656035D01*
X105756605Y-80623312D01*
X105751655Y-80589943D01*
X105750000Y-80556250D01*
X105750000Y-79443750D01*
X105751655Y-79410057D01*
X105756605Y-79376688D01*
X105764802Y-79343965D01*
X105776166Y-79312203D01*
X105790590Y-79281707D01*
X105807932Y-79252773D01*
X105828028Y-79225677D01*
X105850682Y-79200682D01*
X105875677Y-79178028D01*
X105902773Y-79157932D01*
X105931707Y-79140590D01*
X105962203Y-79126166D01*
X105993965Y-79114802D01*
X106026688Y-79106605D01*
X106060057Y-79101655D01*
X106093750Y-79100000D01*
X106781250Y-79100000D01*
X106814943Y-79101655D01*
X106814943Y-79101655D01*
G37*
D23*
X106437500Y-80000000D03*
G04 #@! TD*
D20*
G04 #@! TO.C,R22*
G36*
X108739943Y-91801655D02*
X108773312Y-91806605D01*
X108806035Y-91814802D01*
X108837797Y-91826166D01*
X108868293Y-91840590D01*
X108897227Y-91857932D01*
X108924323Y-91878028D01*
X108949318Y-91900682D01*
X108971972Y-91925677D01*
X108992068Y-91952773D01*
X109009410Y-91981707D01*
X109023834Y-92012203D01*
X109035198Y-92043965D01*
X109043395Y-92076688D01*
X109048345Y-92110057D01*
X109050000Y-92143750D01*
X109050000Y-93256250D01*
X109048345Y-93289943D01*
X109043395Y-93323312D01*
X109035198Y-93356035D01*
X109023834Y-93387797D01*
X109009410Y-93418293D01*
X108992068Y-93447227D01*
X108971972Y-93474323D01*
X108949318Y-93499318D01*
X108924323Y-93521972D01*
X108897227Y-93542068D01*
X108868293Y-93559410D01*
X108837797Y-93573834D01*
X108806035Y-93585198D01*
X108773312Y-93593395D01*
X108739943Y-93598345D01*
X108706250Y-93600000D01*
X108018750Y-93600000D01*
X107985057Y-93598345D01*
X107951688Y-93593395D01*
X107918965Y-93585198D01*
X107887203Y-93573834D01*
X107856707Y-93559410D01*
X107827773Y-93542068D01*
X107800677Y-93521972D01*
X107775682Y-93499318D01*
X107753028Y-93474323D01*
X107732932Y-93447227D01*
X107715590Y-93418293D01*
X107701166Y-93387797D01*
X107689802Y-93356035D01*
X107681605Y-93323312D01*
X107676655Y-93289943D01*
X107675000Y-93256250D01*
X107675000Y-92143750D01*
X107676655Y-92110057D01*
X107681605Y-92076688D01*
X107689802Y-92043965D01*
X107701166Y-92012203D01*
X107715590Y-91981707D01*
X107732932Y-91952773D01*
X107753028Y-91925677D01*
X107775682Y-91900682D01*
X107800677Y-91878028D01*
X107827773Y-91857932D01*
X107856707Y-91840590D01*
X107887203Y-91826166D01*
X107918965Y-91814802D01*
X107951688Y-91806605D01*
X107985057Y-91801655D01*
X108018750Y-91800000D01*
X108706250Y-91800000D01*
X108739943Y-91801655D01*
X108739943Y-91801655D01*
G37*
D23*
X108362500Y-92700000D03*
D20*
G36*
X110614943Y-91801655D02*
X110648312Y-91806605D01*
X110681035Y-91814802D01*
X110712797Y-91826166D01*
X110743293Y-91840590D01*
X110772227Y-91857932D01*
X110799323Y-91878028D01*
X110824318Y-91900682D01*
X110846972Y-91925677D01*
X110867068Y-91952773D01*
X110884410Y-91981707D01*
X110898834Y-92012203D01*
X110910198Y-92043965D01*
X110918395Y-92076688D01*
X110923345Y-92110057D01*
X110925000Y-92143750D01*
X110925000Y-93256250D01*
X110923345Y-93289943D01*
X110918395Y-93323312D01*
X110910198Y-93356035D01*
X110898834Y-93387797D01*
X110884410Y-93418293D01*
X110867068Y-93447227D01*
X110846972Y-93474323D01*
X110824318Y-93499318D01*
X110799323Y-93521972D01*
X110772227Y-93542068D01*
X110743293Y-93559410D01*
X110712797Y-93573834D01*
X110681035Y-93585198D01*
X110648312Y-93593395D01*
X110614943Y-93598345D01*
X110581250Y-93600000D01*
X109893750Y-93600000D01*
X109860057Y-93598345D01*
X109826688Y-93593395D01*
X109793965Y-93585198D01*
X109762203Y-93573834D01*
X109731707Y-93559410D01*
X109702773Y-93542068D01*
X109675677Y-93521972D01*
X109650682Y-93499318D01*
X109628028Y-93474323D01*
X109607932Y-93447227D01*
X109590590Y-93418293D01*
X109576166Y-93387797D01*
X109564802Y-93356035D01*
X109556605Y-93323312D01*
X109551655Y-93289943D01*
X109550000Y-93256250D01*
X109550000Y-92143750D01*
X109551655Y-92110057D01*
X109556605Y-92076688D01*
X109564802Y-92043965D01*
X109576166Y-92012203D01*
X109590590Y-91981707D01*
X109607932Y-91952773D01*
X109628028Y-91925677D01*
X109650682Y-91900682D01*
X109675677Y-91878028D01*
X109702773Y-91857932D01*
X109731707Y-91840590D01*
X109762203Y-91826166D01*
X109793965Y-91814802D01*
X109826688Y-91806605D01*
X109860057Y-91801655D01*
X109893750Y-91800000D01*
X110581250Y-91800000D01*
X110614943Y-91801655D01*
X110614943Y-91801655D01*
G37*
D23*
X110237500Y-92700000D03*
G04 #@! TD*
D20*
G04 #@! TO.C,R23*
G36*
X108839943Y-74001655D02*
X108873312Y-74006605D01*
X108906035Y-74014802D01*
X108937797Y-74026166D01*
X108968293Y-74040590D01*
X108997227Y-74057932D01*
X109024323Y-74078028D01*
X109049318Y-74100682D01*
X109071972Y-74125677D01*
X109092068Y-74152773D01*
X109109410Y-74181707D01*
X109123834Y-74212203D01*
X109135198Y-74243965D01*
X109143395Y-74276688D01*
X109148345Y-74310057D01*
X109150000Y-74343750D01*
X109150000Y-75456250D01*
X109148345Y-75489943D01*
X109143395Y-75523312D01*
X109135198Y-75556035D01*
X109123834Y-75587797D01*
X109109410Y-75618293D01*
X109092068Y-75647227D01*
X109071972Y-75674323D01*
X109049318Y-75699318D01*
X109024323Y-75721972D01*
X108997227Y-75742068D01*
X108968293Y-75759410D01*
X108937797Y-75773834D01*
X108906035Y-75785198D01*
X108873312Y-75793395D01*
X108839943Y-75798345D01*
X108806250Y-75800000D01*
X108118750Y-75800000D01*
X108085057Y-75798345D01*
X108051688Y-75793395D01*
X108018965Y-75785198D01*
X107987203Y-75773834D01*
X107956707Y-75759410D01*
X107927773Y-75742068D01*
X107900677Y-75721972D01*
X107875682Y-75699318D01*
X107853028Y-75674323D01*
X107832932Y-75647227D01*
X107815590Y-75618293D01*
X107801166Y-75587797D01*
X107789802Y-75556035D01*
X107781605Y-75523312D01*
X107776655Y-75489943D01*
X107775000Y-75456250D01*
X107775000Y-74343750D01*
X107776655Y-74310057D01*
X107781605Y-74276688D01*
X107789802Y-74243965D01*
X107801166Y-74212203D01*
X107815590Y-74181707D01*
X107832932Y-74152773D01*
X107853028Y-74125677D01*
X107875682Y-74100682D01*
X107900677Y-74078028D01*
X107927773Y-74057932D01*
X107956707Y-74040590D01*
X107987203Y-74026166D01*
X108018965Y-74014802D01*
X108051688Y-74006605D01*
X108085057Y-74001655D01*
X108118750Y-74000000D01*
X108806250Y-74000000D01*
X108839943Y-74001655D01*
X108839943Y-74001655D01*
G37*
D23*
X108462500Y-74900000D03*
D20*
G36*
X110714943Y-74001655D02*
X110748312Y-74006605D01*
X110781035Y-74014802D01*
X110812797Y-74026166D01*
X110843293Y-74040590D01*
X110872227Y-74057932D01*
X110899323Y-74078028D01*
X110924318Y-74100682D01*
X110946972Y-74125677D01*
X110967068Y-74152773D01*
X110984410Y-74181707D01*
X110998834Y-74212203D01*
X111010198Y-74243965D01*
X111018395Y-74276688D01*
X111023345Y-74310057D01*
X111025000Y-74343750D01*
X111025000Y-75456250D01*
X111023345Y-75489943D01*
X111018395Y-75523312D01*
X111010198Y-75556035D01*
X110998834Y-75587797D01*
X110984410Y-75618293D01*
X110967068Y-75647227D01*
X110946972Y-75674323D01*
X110924318Y-75699318D01*
X110899323Y-75721972D01*
X110872227Y-75742068D01*
X110843293Y-75759410D01*
X110812797Y-75773834D01*
X110781035Y-75785198D01*
X110748312Y-75793395D01*
X110714943Y-75798345D01*
X110681250Y-75800000D01*
X109993750Y-75800000D01*
X109960057Y-75798345D01*
X109926688Y-75793395D01*
X109893965Y-75785198D01*
X109862203Y-75773834D01*
X109831707Y-75759410D01*
X109802773Y-75742068D01*
X109775677Y-75721972D01*
X109750682Y-75699318D01*
X109728028Y-75674323D01*
X109707932Y-75647227D01*
X109690590Y-75618293D01*
X109676166Y-75587797D01*
X109664802Y-75556035D01*
X109656605Y-75523312D01*
X109651655Y-75489943D01*
X109650000Y-75456250D01*
X109650000Y-74343750D01*
X109651655Y-74310057D01*
X109656605Y-74276688D01*
X109664802Y-74243965D01*
X109676166Y-74212203D01*
X109690590Y-74181707D01*
X109707932Y-74152773D01*
X109728028Y-74125677D01*
X109750682Y-74100682D01*
X109775677Y-74078028D01*
X109802773Y-74057932D01*
X109831707Y-74040590D01*
X109862203Y-74026166D01*
X109893965Y-74014802D01*
X109926688Y-74006605D01*
X109960057Y-74001655D01*
X109993750Y-74000000D01*
X110681250Y-74000000D01*
X110714943Y-74001655D01*
X110714943Y-74001655D01*
G37*
D23*
X110337500Y-74900000D03*
G04 #@! TD*
D20*
G04 #@! TO.C,R24*
G36*
X76389943Y-156651655D02*
X76423312Y-156656605D01*
X76456035Y-156664802D01*
X76487797Y-156676166D01*
X76518293Y-156690590D01*
X76547227Y-156707932D01*
X76574323Y-156728028D01*
X76599318Y-156750682D01*
X76621972Y-156775677D01*
X76642068Y-156802773D01*
X76659410Y-156831707D01*
X76673834Y-156862203D01*
X76685198Y-156893965D01*
X76693395Y-156926688D01*
X76698345Y-156960057D01*
X76700000Y-156993750D01*
X76700000Y-157681250D01*
X76698345Y-157714943D01*
X76693395Y-157748312D01*
X76685198Y-157781035D01*
X76673834Y-157812797D01*
X76659410Y-157843293D01*
X76642068Y-157872227D01*
X76621972Y-157899323D01*
X76599318Y-157924318D01*
X76574323Y-157946972D01*
X76547227Y-157967068D01*
X76518293Y-157984410D01*
X76487797Y-157998834D01*
X76456035Y-158010198D01*
X76423312Y-158018395D01*
X76389943Y-158023345D01*
X76356250Y-158025000D01*
X75243750Y-158025000D01*
X75210057Y-158023345D01*
X75176688Y-158018395D01*
X75143965Y-158010198D01*
X75112203Y-157998834D01*
X75081707Y-157984410D01*
X75052773Y-157967068D01*
X75025677Y-157946972D01*
X75000682Y-157924318D01*
X74978028Y-157899323D01*
X74957932Y-157872227D01*
X74940590Y-157843293D01*
X74926166Y-157812797D01*
X74914802Y-157781035D01*
X74906605Y-157748312D01*
X74901655Y-157714943D01*
X74900000Y-157681250D01*
X74900000Y-156993750D01*
X74901655Y-156960057D01*
X74906605Y-156926688D01*
X74914802Y-156893965D01*
X74926166Y-156862203D01*
X74940590Y-156831707D01*
X74957932Y-156802773D01*
X74978028Y-156775677D01*
X75000682Y-156750682D01*
X75025677Y-156728028D01*
X75052773Y-156707932D01*
X75081707Y-156690590D01*
X75112203Y-156676166D01*
X75143965Y-156664802D01*
X75176688Y-156656605D01*
X75210057Y-156651655D01*
X75243750Y-156650000D01*
X76356250Y-156650000D01*
X76389943Y-156651655D01*
X76389943Y-156651655D01*
G37*
D23*
X75800000Y-157337500D03*
D20*
G36*
X76389943Y-154776655D02*
X76423312Y-154781605D01*
X76456035Y-154789802D01*
X76487797Y-154801166D01*
X76518293Y-154815590D01*
X76547227Y-154832932D01*
X76574323Y-154853028D01*
X76599318Y-154875682D01*
X76621972Y-154900677D01*
X76642068Y-154927773D01*
X76659410Y-154956707D01*
X76673834Y-154987203D01*
X76685198Y-155018965D01*
X76693395Y-155051688D01*
X76698345Y-155085057D01*
X76700000Y-155118750D01*
X76700000Y-155806250D01*
X76698345Y-155839943D01*
X76693395Y-155873312D01*
X76685198Y-155906035D01*
X76673834Y-155937797D01*
X76659410Y-155968293D01*
X76642068Y-155997227D01*
X76621972Y-156024323D01*
X76599318Y-156049318D01*
X76574323Y-156071972D01*
X76547227Y-156092068D01*
X76518293Y-156109410D01*
X76487797Y-156123834D01*
X76456035Y-156135198D01*
X76423312Y-156143395D01*
X76389943Y-156148345D01*
X76356250Y-156150000D01*
X75243750Y-156150000D01*
X75210057Y-156148345D01*
X75176688Y-156143395D01*
X75143965Y-156135198D01*
X75112203Y-156123834D01*
X75081707Y-156109410D01*
X75052773Y-156092068D01*
X75025677Y-156071972D01*
X75000682Y-156049318D01*
X74978028Y-156024323D01*
X74957932Y-155997227D01*
X74940590Y-155968293D01*
X74926166Y-155937797D01*
X74914802Y-155906035D01*
X74906605Y-155873312D01*
X74901655Y-155839943D01*
X74900000Y-155806250D01*
X74900000Y-155118750D01*
X74901655Y-155085057D01*
X74906605Y-155051688D01*
X74914802Y-155018965D01*
X74926166Y-154987203D01*
X74940590Y-154956707D01*
X74957932Y-154927773D01*
X74978028Y-154900677D01*
X75000682Y-154875682D01*
X75025677Y-154853028D01*
X75052773Y-154832932D01*
X75081707Y-154815590D01*
X75112203Y-154801166D01*
X75143965Y-154789802D01*
X75176688Y-154781605D01*
X75210057Y-154776655D01*
X75243750Y-154775000D01*
X76356250Y-154775000D01*
X76389943Y-154776655D01*
X76389943Y-154776655D01*
G37*
D23*
X75800000Y-155462500D03*
G04 #@! TD*
D20*
G04 #@! TO.C,R25*
G36*
X78989943Y-154776655D02*
X79023312Y-154781605D01*
X79056035Y-154789802D01*
X79087797Y-154801166D01*
X79118293Y-154815590D01*
X79147227Y-154832932D01*
X79174323Y-154853028D01*
X79199318Y-154875682D01*
X79221972Y-154900677D01*
X79242068Y-154927773D01*
X79259410Y-154956707D01*
X79273834Y-154987203D01*
X79285198Y-155018965D01*
X79293395Y-155051688D01*
X79298345Y-155085057D01*
X79300000Y-155118750D01*
X79300000Y-155806250D01*
X79298345Y-155839943D01*
X79293395Y-155873312D01*
X79285198Y-155906035D01*
X79273834Y-155937797D01*
X79259410Y-155968293D01*
X79242068Y-155997227D01*
X79221972Y-156024323D01*
X79199318Y-156049318D01*
X79174323Y-156071972D01*
X79147227Y-156092068D01*
X79118293Y-156109410D01*
X79087797Y-156123834D01*
X79056035Y-156135198D01*
X79023312Y-156143395D01*
X78989943Y-156148345D01*
X78956250Y-156150000D01*
X77843750Y-156150000D01*
X77810057Y-156148345D01*
X77776688Y-156143395D01*
X77743965Y-156135198D01*
X77712203Y-156123834D01*
X77681707Y-156109410D01*
X77652773Y-156092068D01*
X77625677Y-156071972D01*
X77600682Y-156049318D01*
X77578028Y-156024323D01*
X77557932Y-155997227D01*
X77540590Y-155968293D01*
X77526166Y-155937797D01*
X77514802Y-155906035D01*
X77506605Y-155873312D01*
X77501655Y-155839943D01*
X77500000Y-155806250D01*
X77500000Y-155118750D01*
X77501655Y-155085057D01*
X77506605Y-155051688D01*
X77514802Y-155018965D01*
X77526166Y-154987203D01*
X77540590Y-154956707D01*
X77557932Y-154927773D01*
X77578028Y-154900677D01*
X77600682Y-154875682D01*
X77625677Y-154853028D01*
X77652773Y-154832932D01*
X77681707Y-154815590D01*
X77712203Y-154801166D01*
X77743965Y-154789802D01*
X77776688Y-154781605D01*
X77810057Y-154776655D01*
X77843750Y-154775000D01*
X78956250Y-154775000D01*
X78989943Y-154776655D01*
X78989943Y-154776655D01*
G37*
D23*
X78400000Y-155462500D03*
D20*
G36*
X78989943Y-156651655D02*
X79023312Y-156656605D01*
X79056035Y-156664802D01*
X79087797Y-156676166D01*
X79118293Y-156690590D01*
X79147227Y-156707932D01*
X79174323Y-156728028D01*
X79199318Y-156750682D01*
X79221972Y-156775677D01*
X79242068Y-156802773D01*
X79259410Y-156831707D01*
X79273834Y-156862203D01*
X79285198Y-156893965D01*
X79293395Y-156926688D01*
X79298345Y-156960057D01*
X79300000Y-156993750D01*
X79300000Y-157681250D01*
X79298345Y-157714943D01*
X79293395Y-157748312D01*
X79285198Y-157781035D01*
X79273834Y-157812797D01*
X79259410Y-157843293D01*
X79242068Y-157872227D01*
X79221972Y-157899323D01*
X79199318Y-157924318D01*
X79174323Y-157946972D01*
X79147227Y-157967068D01*
X79118293Y-157984410D01*
X79087797Y-157998834D01*
X79056035Y-158010198D01*
X79023312Y-158018395D01*
X78989943Y-158023345D01*
X78956250Y-158025000D01*
X77843750Y-158025000D01*
X77810057Y-158023345D01*
X77776688Y-158018395D01*
X77743965Y-158010198D01*
X77712203Y-157998834D01*
X77681707Y-157984410D01*
X77652773Y-157967068D01*
X77625677Y-157946972D01*
X77600682Y-157924318D01*
X77578028Y-157899323D01*
X77557932Y-157872227D01*
X77540590Y-157843293D01*
X77526166Y-157812797D01*
X77514802Y-157781035D01*
X77506605Y-157748312D01*
X77501655Y-157714943D01*
X77500000Y-157681250D01*
X77500000Y-156993750D01*
X77501655Y-156960057D01*
X77506605Y-156926688D01*
X77514802Y-156893965D01*
X77526166Y-156862203D01*
X77540590Y-156831707D01*
X77557932Y-156802773D01*
X77578028Y-156775677D01*
X77600682Y-156750682D01*
X77625677Y-156728028D01*
X77652773Y-156707932D01*
X77681707Y-156690590D01*
X77712203Y-156676166D01*
X77743965Y-156664802D01*
X77776688Y-156656605D01*
X77810057Y-156651655D01*
X77843750Y-156650000D01*
X78956250Y-156650000D01*
X78989943Y-156651655D01*
X78989943Y-156651655D01*
G37*
D23*
X78400000Y-157337500D03*
G04 #@! TD*
D20*
G04 #@! TO.C,R26*
G36*
X101814943Y-134401655D02*
X101848312Y-134406605D01*
X101881035Y-134414802D01*
X101912797Y-134426166D01*
X101943293Y-134440590D01*
X101972227Y-134457932D01*
X101999323Y-134478028D01*
X102024318Y-134500682D01*
X102046972Y-134525677D01*
X102067068Y-134552773D01*
X102084410Y-134581707D01*
X102098834Y-134612203D01*
X102110198Y-134643965D01*
X102118395Y-134676688D01*
X102123345Y-134710057D01*
X102125000Y-134743750D01*
X102125000Y-135856250D01*
X102123345Y-135889943D01*
X102118395Y-135923312D01*
X102110198Y-135956035D01*
X102098834Y-135987797D01*
X102084410Y-136018293D01*
X102067068Y-136047227D01*
X102046972Y-136074323D01*
X102024318Y-136099318D01*
X101999323Y-136121972D01*
X101972227Y-136142068D01*
X101943293Y-136159410D01*
X101912797Y-136173834D01*
X101881035Y-136185198D01*
X101848312Y-136193395D01*
X101814943Y-136198345D01*
X101781250Y-136200000D01*
X101093750Y-136200000D01*
X101060057Y-136198345D01*
X101026688Y-136193395D01*
X100993965Y-136185198D01*
X100962203Y-136173834D01*
X100931707Y-136159410D01*
X100902773Y-136142068D01*
X100875677Y-136121972D01*
X100850682Y-136099318D01*
X100828028Y-136074323D01*
X100807932Y-136047227D01*
X100790590Y-136018293D01*
X100776166Y-135987797D01*
X100764802Y-135956035D01*
X100756605Y-135923312D01*
X100751655Y-135889943D01*
X100750000Y-135856250D01*
X100750000Y-134743750D01*
X100751655Y-134710057D01*
X100756605Y-134676688D01*
X100764802Y-134643965D01*
X100776166Y-134612203D01*
X100790590Y-134581707D01*
X100807932Y-134552773D01*
X100828028Y-134525677D01*
X100850682Y-134500682D01*
X100875677Y-134478028D01*
X100902773Y-134457932D01*
X100931707Y-134440590D01*
X100962203Y-134426166D01*
X100993965Y-134414802D01*
X101026688Y-134406605D01*
X101060057Y-134401655D01*
X101093750Y-134400000D01*
X101781250Y-134400000D01*
X101814943Y-134401655D01*
X101814943Y-134401655D01*
G37*
D23*
X101437500Y-135300000D03*
D20*
G36*
X99939943Y-134401655D02*
X99973312Y-134406605D01*
X100006035Y-134414802D01*
X100037797Y-134426166D01*
X100068293Y-134440590D01*
X100097227Y-134457932D01*
X100124323Y-134478028D01*
X100149318Y-134500682D01*
X100171972Y-134525677D01*
X100192068Y-134552773D01*
X100209410Y-134581707D01*
X100223834Y-134612203D01*
X100235198Y-134643965D01*
X100243395Y-134676688D01*
X100248345Y-134710057D01*
X100250000Y-134743750D01*
X100250000Y-135856250D01*
X100248345Y-135889943D01*
X100243395Y-135923312D01*
X100235198Y-135956035D01*
X100223834Y-135987797D01*
X100209410Y-136018293D01*
X100192068Y-136047227D01*
X100171972Y-136074323D01*
X100149318Y-136099318D01*
X100124323Y-136121972D01*
X100097227Y-136142068D01*
X100068293Y-136159410D01*
X100037797Y-136173834D01*
X100006035Y-136185198D01*
X99973312Y-136193395D01*
X99939943Y-136198345D01*
X99906250Y-136200000D01*
X99218750Y-136200000D01*
X99185057Y-136198345D01*
X99151688Y-136193395D01*
X99118965Y-136185198D01*
X99087203Y-136173834D01*
X99056707Y-136159410D01*
X99027773Y-136142068D01*
X99000677Y-136121972D01*
X98975682Y-136099318D01*
X98953028Y-136074323D01*
X98932932Y-136047227D01*
X98915590Y-136018293D01*
X98901166Y-135987797D01*
X98889802Y-135956035D01*
X98881605Y-135923312D01*
X98876655Y-135889943D01*
X98875000Y-135856250D01*
X98875000Y-134743750D01*
X98876655Y-134710057D01*
X98881605Y-134676688D01*
X98889802Y-134643965D01*
X98901166Y-134612203D01*
X98915590Y-134581707D01*
X98932932Y-134552773D01*
X98953028Y-134525677D01*
X98975682Y-134500682D01*
X99000677Y-134478028D01*
X99027773Y-134457932D01*
X99056707Y-134440590D01*
X99087203Y-134426166D01*
X99118965Y-134414802D01*
X99151688Y-134406605D01*
X99185057Y-134401655D01*
X99218750Y-134400000D01*
X99906250Y-134400000D01*
X99939943Y-134401655D01*
X99939943Y-134401655D01*
G37*
D23*
X99562500Y-135300000D03*
G04 #@! TD*
D20*
G04 #@! TO.C,R30*
G36*
X90289943Y-127351655D02*
X90323312Y-127356605D01*
X90356035Y-127364802D01*
X90387797Y-127376166D01*
X90418293Y-127390590D01*
X90447227Y-127407932D01*
X90474323Y-127428028D01*
X90499318Y-127450682D01*
X90521972Y-127475677D01*
X90542068Y-127502773D01*
X90559410Y-127531707D01*
X90573834Y-127562203D01*
X90585198Y-127593965D01*
X90593395Y-127626688D01*
X90598345Y-127660057D01*
X90600000Y-127693750D01*
X90600000Y-128381250D01*
X90598345Y-128414943D01*
X90593395Y-128448312D01*
X90585198Y-128481035D01*
X90573834Y-128512797D01*
X90559410Y-128543293D01*
X90542068Y-128572227D01*
X90521972Y-128599323D01*
X90499318Y-128624318D01*
X90474323Y-128646972D01*
X90447227Y-128667068D01*
X90418293Y-128684410D01*
X90387797Y-128698834D01*
X90356035Y-128710198D01*
X90323312Y-128718395D01*
X90289943Y-128723345D01*
X90256250Y-128725000D01*
X89143750Y-128725000D01*
X89110057Y-128723345D01*
X89076688Y-128718395D01*
X89043965Y-128710198D01*
X89012203Y-128698834D01*
X88981707Y-128684410D01*
X88952773Y-128667068D01*
X88925677Y-128646972D01*
X88900682Y-128624318D01*
X88878028Y-128599323D01*
X88857932Y-128572227D01*
X88840590Y-128543293D01*
X88826166Y-128512797D01*
X88814802Y-128481035D01*
X88806605Y-128448312D01*
X88801655Y-128414943D01*
X88800000Y-128381250D01*
X88800000Y-127693750D01*
X88801655Y-127660057D01*
X88806605Y-127626688D01*
X88814802Y-127593965D01*
X88826166Y-127562203D01*
X88840590Y-127531707D01*
X88857932Y-127502773D01*
X88878028Y-127475677D01*
X88900682Y-127450682D01*
X88925677Y-127428028D01*
X88952773Y-127407932D01*
X88981707Y-127390590D01*
X89012203Y-127376166D01*
X89043965Y-127364802D01*
X89076688Y-127356605D01*
X89110057Y-127351655D01*
X89143750Y-127350000D01*
X90256250Y-127350000D01*
X90289943Y-127351655D01*
X90289943Y-127351655D01*
G37*
D23*
X89700000Y-128037500D03*
D20*
G36*
X90289943Y-125476655D02*
X90323312Y-125481605D01*
X90356035Y-125489802D01*
X90387797Y-125501166D01*
X90418293Y-125515590D01*
X90447227Y-125532932D01*
X90474323Y-125553028D01*
X90499318Y-125575682D01*
X90521972Y-125600677D01*
X90542068Y-125627773D01*
X90559410Y-125656707D01*
X90573834Y-125687203D01*
X90585198Y-125718965D01*
X90593395Y-125751688D01*
X90598345Y-125785057D01*
X90600000Y-125818750D01*
X90600000Y-126506250D01*
X90598345Y-126539943D01*
X90593395Y-126573312D01*
X90585198Y-126606035D01*
X90573834Y-126637797D01*
X90559410Y-126668293D01*
X90542068Y-126697227D01*
X90521972Y-126724323D01*
X90499318Y-126749318D01*
X90474323Y-126771972D01*
X90447227Y-126792068D01*
X90418293Y-126809410D01*
X90387797Y-126823834D01*
X90356035Y-126835198D01*
X90323312Y-126843395D01*
X90289943Y-126848345D01*
X90256250Y-126850000D01*
X89143750Y-126850000D01*
X89110057Y-126848345D01*
X89076688Y-126843395D01*
X89043965Y-126835198D01*
X89012203Y-126823834D01*
X88981707Y-126809410D01*
X88952773Y-126792068D01*
X88925677Y-126771972D01*
X88900682Y-126749318D01*
X88878028Y-126724323D01*
X88857932Y-126697227D01*
X88840590Y-126668293D01*
X88826166Y-126637797D01*
X88814802Y-126606035D01*
X88806605Y-126573312D01*
X88801655Y-126539943D01*
X88800000Y-126506250D01*
X88800000Y-125818750D01*
X88801655Y-125785057D01*
X88806605Y-125751688D01*
X88814802Y-125718965D01*
X88826166Y-125687203D01*
X88840590Y-125656707D01*
X88857932Y-125627773D01*
X88878028Y-125600677D01*
X88900682Y-125575682D01*
X88925677Y-125553028D01*
X88952773Y-125532932D01*
X88981707Y-125515590D01*
X89012203Y-125501166D01*
X89043965Y-125489802D01*
X89076688Y-125481605D01*
X89110057Y-125476655D01*
X89143750Y-125475000D01*
X90256250Y-125475000D01*
X90289943Y-125476655D01*
X90289943Y-125476655D01*
G37*
D23*
X89700000Y-126162500D03*
G04 #@! TD*
D20*
G04 #@! TO.C,R31*
G36*
X82289943Y-130951655D02*
X82323312Y-130956605D01*
X82356035Y-130964802D01*
X82387797Y-130976166D01*
X82418293Y-130990590D01*
X82447227Y-131007932D01*
X82474323Y-131028028D01*
X82499318Y-131050682D01*
X82521972Y-131075677D01*
X82542068Y-131102773D01*
X82559410Y-131131707D01*
X82573834Y-131162203D01*
X82585198Y-131193965D01*
X82593395Y-131226688D01*
X82598345Y-131260057D01*
X82600000Y-131293750D01*
X82600000Y-131981250D01*
X82598345Y-132014943D01*
X82593395Y-132048312D01*
X82585198Y-132081035D01*
X82573834Y-132112797D01*
X82559410Y-132143293D01*
X82542068Y-132172227D01*
X82521972Y-132199323D01*
X82499318Y-132224318D01*
X82474323Y-132246972D01*
X82447227Y-132267068D01*
X82418293Y-132284410D01*
X82387797Y-132298834D01*
X82356035Y-132310198D01*
X82323312Y-132318395D01*
X82289943Y-132323345D01*
X82256250Y-132325000D01*
X81143750Y-132325000D01*
X81110057Y-132323345D01*
X81076688Y-132318395D01*
X81043965Y-132310198D01*
X81012203Y-132298834D01*
X80981707Y-132284410D01*
X80952773Y-132267068D01*
X80925677Y-132246972D01*
X80900682Y-132224318D01*
X80878028Y-132199323D01*
X80857932Y-132172227D01*
X80840590Y-132143293D01*
X80826166Y-132112797D01*
X80814802Y-132081035D01*
X80806605Y-132048312D01*
X80801655Y-132014943D01*
X80800000Y-131981250D01*
X80800000Y-131293750D01*
X80801655Y-131260057D01*
X80806605Y-131226688D01*
X80814802Y-131193965D01*
X80826166Y-131162203D01*
X80840590Y-131131707D01*
X80857932Y-131102773D01*
X80878028Y-131075677D01*
X80900682Y-131050682D01*
X80925677Y-131028028D01*
X80952773Y-131007932D01*
X80981707Y-130990590D01*
X81012203Y-130976166D01*
X81043965Y-130964802D01*
X81076688Y-130956605D01*
X81110057Y-130951655D01*
X81143750Y-130950000D01*
X82256250Y-130950000D01*
X82289943Y-130951655D01*
X82289943Y-130951655D01*
G37*
D23*
X81700000Y-131637500D03*
D20*
G36*
X82289943Y-129076655D02*
X82323312Y-129081605D01*
X82356035Y-129089802D01*
X82387797Y-129101166D01*
X82418293Y-129115590D01*
X82447227Y-129132932D01*
X82474323Y-129153028D01*
X82499318Y-129175682D01*
X82521972Y-129200677D01*
X82542068Y-129227773D01*
X82559410Y-129256707D01*
X82573834Y-129287203D01*
X82585198Y-129318965D01*
X82593395Y-129351688D01*
X82598345Y-129385057D01*
X82600000Y-129418750D01*
X82600000Y-130106250D01*
X82598345Y-130139943D01*
X82593395Y-130173312D01*
X82585198Y-130206035D01*
X82573834Y-130237797D01*
X82559410Y-130268293D01*
X82542068Y-130297227D01*
X82521972Y-130324323D01*
X82499318Y-130349318D01*
X82474323Y-130371972D01*
X82447227Y-130392068D01*
X82418293Y-130409410D01*
X82387797Y-130423834D01*
X82356035Y-130435198D01*
X82323312Y-130443395D01*
X82289943Y-130448345D01*
X82256250Y-130450000D01*
X81143750Y-130450000D01*
X81110057Y-130448345D01*
X81076688Y-130443395D01*
X81043965Y-130435198D01*
X81012203Y-130423834D01*
X80981707Y-130409410D01*
X80952773Y-130392068D01*
X80925677Y-130371972D01*
X80900682Y-130349318D01*
X80878028Y-130324323D01*
X80857932Y-130297227D01*
X80840590Y-130268293D01*
X80826166Y-130237797D01*
X80814802Y-130206035D01*
X80806605Y-130173312D01*
X80801655Y-130139943D01*
X80800000Y-130106250D01*
X80800000Y-129418750D01*
X80801655Y-129385057D01*
X80806605Y-129351688D01*
X80814802Y-129318965D01*
X80826166Y-129287203D01*
X80840590Y-129256707D01*
X80857932Y-129227773D01*
X80878028Y-129200677D01*
X80900682Y-129175682D01*
X80925677Y-129153028D01*
X80952773Y-129132932D01*
X80981707Y-129115590D01*
X81012203Y-129101166D01*
X81043965Y-129089802D01*
X81076688Y-129081605D01*
X81110057Y-129076655D01*
X81143750Y-129075000D01*
X82256250Y-129075000D01*
X82289943Y-129076655D01*
X82289943Y-129076655D01*
G37*
D23*
X81700000Y-129762500D03*
G04 #@! TD*
D31*
G04 #@! TO.C,RL1*
X97660000Y-115400000D03*
D32*
X97660000Y-107900000D03*
D33*
X117960000Y-115400000D03*
X123000000Y-107900000D03*
X112920000Y-107900000D03*
X112920000Y-115400000D03*
X117960000Y-107900000D03*
X123000000Y-115400000D03*
G04 #@! TD*
D27*
G04 #@! TO.C,SW1*
X81200000Y-145200000D03*
X81200000Y-140700000D03*
X87700000Y-145200000D03*
X87700000Y-140700000D03*
G04 #@! TD*
G04 #@! TO.C,SW2*
X87700000Y-154000000D03*
X87700000Y-158500000D03*
X81200000Y-154000000D03*
X81200000Y-158500000D03*
G04 #@! TD*
D34*
G04 #@! TO.C,U3*
X63000000Y-89760000D03*
X63000000Y-87220000D03*
D35*
X63000000Y-92300000D03*
G04 #@! TD*
D24*
G04 #@! TO.C,U5*
X100400000Y-122560000D03*
D36*
X108020000Y-127640000D03*
X100400000Y-125100000D03*
X108020000Y-125100000D03*
X100400000Y-127640000D03*
X108020000Y-122560000D03*
G04 #@! TD*
D37*
G04 #@! TO.C,U6*
X63200000Y-161450000D03*
D38*
X63200000Y-167750000D03*
X65500000Y-167750000D03*
X60900000Y-167750000D03*
G04 #@! TD*
D17*
G04 #@! TO.C,P2*
X84860000Y-122600000D03*
D16*
X87400000Y-122600000D03*
G04 #@! TD*
G04 #@! TO.C,P3*
X84810000Y-131600000D03*
D17*
X87350000Y-131600000D03*
G04 #@! TD*
D16*
G04 #@! TO.C,P4*
X92000000Y-140460000D03*
D17*
X92000000Y-143000000D03*
X92000000Y-145540000D03*
G04 #@! TD*
G04 #@! TO.C,P5*
X55400000Y-125100000D03*
D16*
X55400000Y-122560000D03*
G04 #@! TD*
G04 #@! TO.C,P6*
X57700000Y-90840000D03*
D17*
X57700000Y-88300000D03*
G04 #@! TD*
D16*
G04 #@! TO.C,P7*
X61000000Y-140360000D03*
D17*
X61000000Y-137820000D03*
X61000000Y-135280000D03*
X61000000Y-132740000D03*
X61000000Y-130200000D03*
X61000000Y-127660000D03*
X61000000Y-125120000D03*
X61000000Y-122580000D03*
G04 #@! TD*
D16*
G04 #@! TO.C,P8*
X92000000Y-155160000D03*
D17*
X92000000Y-157700000D03*
G04 #@! TD*
D16*
G04 #@! TO.C,P9*
X76000000Y-114160000D03*
D17*
X76000000Y-111620000D03*
X76000000Y-109080000D03*
X76000000Y-106540000D03*
X76000000Y-104000000D03*
X76000000Y-101460000D03*
X76000000Y-98920000D03*
X76000000Y-96380000D03*
X76000000Y-93840000D03*
X76000000Y-91300000D03*
X76000000Y-88760000D03*
X76000000Y-86220000D03*
X76000000Y-83680000D03*
X76000000Y-81140000D03*
X76000000Y-78600000D03*
X76000000Y-76060000D03*
G04 #@! TD*
D39*
G04 #@! TO.C,J1*
X130000000Y-145000000D03*
D40*
X130000000Y-150080000D03*
G04 #@! TD*
D39*
G04 #@! TO.C,J2*
X130400000Y-160000000D03*
D40*
X130400000Y-165080000D03*
G04 #@! TD*
D41*
G04 #@! TO.C,J3*
X131000000Y-117500000D03*
D42*
X131000000Y-122580000D03*
X131000000Y-127660000D03*
G04 #@! TD*
D40*
G04 #@! TO.C,J4*
X130000000Y-138830000D03*
D39*
X130000000Y-133750000D03*
G04 #@! TD*
D42*
G04 #@! TO.C,J5*
X131000000Y-111160000D03*
X131000000Y-106080000D03*
D41*
X131000000Y-101000000D03*
G04 #@! TD*
D20*
G04 #@! TO.C,C8*
G36*
X65714943Y-169701655D02*
X65748312Y-169706605D01*
X65781035Y-169714802D01*
X65812797Y-169726166D01*
X65843293Y-169740590D01*
X65872227Y-169757932D01*
X65899323Y-169778028D01*
X65924318Y-169800682D01*
X65946972Y-169825677D01*
X65967068Y-169852773D01*
X65984410Y-169881707D01*
X65998834Y-169912203D01*
X66010198Y-169943965D01*
X66018395Y-169976688D01*
X66023345Y-170010057D01*
X66025000Y-170043750D01*
X66025000Y-171156250D01*
X66023345Y-171189943D01*
X66018395Y-171223312D01*
X66010198Y-171256035D01*
X65998834Y-171287797D01*
X65984410Y-171318293D01*
X65967068Y-171347227D01*
X65946972Y-171374323D01*
X65924318Y-171399318D01*
X65899323Y-171421972D01*
X65872227Y-171442068D01*
X65843293Y-171459410D01*
X65812797Y-171473834D01*
X65781035Y-171485198D01*
X65748312Y-171493395D01*
X65714943Y-171498345D01*
X65681250Y-171500000D01*
X64993750Y-171500000D01*
X64960057Y-171498345D01*
X64926688Y-171493395D01*
X64893965Y-171485198D01*
X64862203Y-171473834D01*
X64831707Y-171459410D01*
X64802773Y-171442068D01*
X64775677Y-171421972D01*
X64750682Y-171399318D01*
X64728028Y-171374323D01*
X64707932Y-171347227D01*
X64690590Y-171318293D01*
X64676166Y-171287797D01*
X64664802Y-171256035D01*
X64656605Y-171223312D01*
X64651655Y-171189943D01*
X64650000Y-171156250D01*
X64650000Y-170043750D01*
X64651655Y-170010057D01*
X64656605Y-169976688D01*
X64664802Y-169943965D01*
X64676166Y-169912203D01*
X64690590Y-169881707D01*
X64707932Y-169852773D01*
X64728028Y-169825677D01*
X64750682Y-169800682D01*
X64775677Y-169778028D01*
X64802773Y-169757932D01*
X64831707Y-169740590D01*
X64862203Y-169726166D01*
X64893965Y-169714802D01*
X64926688Y-169706605D01*
X64960057Y-169701655D01*
X64993750Y-169700000D01*
X65681250Y-169700000D01*
X65714943Y-169701655D01*
X65714943Y-169701655D01*
G37*
D23*
X65337500Y-170600000D03*
D20*
G36*
X63839943Y-169701655D02*
X63873312Y-169706605D01*
X63906035Y-169714802D01*
X63937797Y-169726166D01*
X63968293Y-169740590D01*
X63997227Y-169757932D01*
X64024323Y-169778028D01*
X64049318Y-169800682D01*
X64071972Y-169825677D01*
X64092068Y-169852773D01*
X64109410Y-169881707D01*
X64123834Y-169912203D01*
X64135198Y-169943965D01*
X64143395Y-169976688D01*
X64148345Y-170010057D01*
X64150000Y-170043750D01*
X64150000Y-171156250D01*
X64148345Y-171189943D01*
X64143395Y-171223312D01*
X64135198Y-171256035D01*
X64123834Y-171287797D01*
X64109410Y-171318293D01*
X64092068Y-171347227D01*
X64071972Y-171374323D01*
X64049318Y-171399318D01*
X64024323Y-171421972D01*
X63997227Y-171442068D01*
X63968293Y-171459410D01*
X63937797Y-171473834D01*
X63906035Y-171485198D01*
X63873312Y-171493395D01*
X63839943Y-171498345D01*
X63806250Y-171500000D01*
X63118750Y-171500000D01*
X63085057Y-171498345D01*
X63051688Y-171493395D01*
X63018965Y-171485198D01*
X62987203Y-171473834D01*
X62956707Y-171459410D01*
X62927773Y-171442068D01*
X62900677Y-171421972D01*
X62875682Y-171399318D01*
X62853028Y-171374323D01*
X62832932Y-171347227D01*
X62815590Y-171318293D01*
X62801166Y-171287797D01*
X62789802Y-171256035D01*
X62781605Y-171223312D01*
X62776655Y-171189943D01*
X62775000Y-171156250D01*
X62775000Y-170043750D01*
X62776655Y-170010057D01*
X62781605Y-169976688D01*
X62789802Y-169943965D01*
X62801166Y-169912203D01*
X62815590Y-169881707D01*
X62832932Y-169852773D01*
X62853028Y-169825677D01*
X62875682Y-169800682D01*
X62900677Y-169778028D01*
X62927773Y-169757932D01*
X62956707Y-169740590D01*
X62987203Y-169726166D01*
X63018965Y-169714802D01*
X63051688Y-169706605D01*
X63085057Y-169701655D01*
X63118750Y-169700000D01*
X63806250Y-169700000D01*
X63839943Y-169701655D01*
X63839943Y-169701655D01*
G37*
D23*
X63462500Y-170600000D03*
G04 #@! TD*
D43*
G04 #@! TO.C,D3*
X106900000Y-89700000D03*
X104100000Y-89700000D03*
G04 #@! TD*
G04 #@! TO.C,D7*
X90000000Y-116100000D03*
X92800000Y-116100000D03*
G04 #@! TD*
D44*
G04 #@! TO.C,D12*
X123100000Y-136740000D03*
D45*
X123100000Y-134200000D03*
X123100000Y-131660000D03*
G04 #@! TD*
D46*
G04 #@! TO.C,PS1*
X109450000Y-179750000D03*
X109450000Y-174750000D03*
X80050000Y-184950000D03*
X80050000Y-169550000D03*
G04 #@! TD*
D47*
G04 #@! TO.C,F1*
X120250000Y-185250000D03*
X120250000Y-162750000D03*
D48*
X120250000Y-174000000D03*
G04 #@! TD*
D39*
G04 #@! TO.C,J6*
X130200000Y-171900000D03*
D40*
X130200000Y-176980000D03*
G04 #@! TD*
D10*
G04 #@! TO.C,MK5*
X134500000Y-154900000D03*
G04 #@! TD*
M02*
